<svg width="6414" height="2663" viewBox="0 0 6414 2663" fill="none" xmlns="http://www.w3.org/2000/svg">
<g clip-path="url(#clip0_66_4)">
<rect width="6414" height="2663" rx="200" fill="url(#paint0_linear_66_4)"/>
<path d="M2686.5 -3L-429 2663H6697L3548.5 -3H2686.5Z" fill="url(#paint1_linear_66_4)"/>
<circle cx="672" cy="719.5" r="511.5" fill="url(#paint2_linear_66_4)"/>
<g clip-path="url(#clip1_66_4)">
<path fill-rule="evenodd" clip-rule="evenodd" d="M723.944 409.115L894.682 507.655C899.611 502.442 905.268 497.967 911.477 494.37C946.886 474.022 992.051 486.103 1012.62 521.5C1032.98 556.897 1020.89 602.04 985.478 622.6C979.315 626.147 972.674 628.79 965.759 630.448V827.601C972.599 829.261 979.168 831.887 985.267 835.397C1020.89 855.957 1032.98 901.103 1012.41 936.5C992.051 971.894 946.675 983.975 911.263 963.63C904.403 959.695 898.223 954.68 892.962 948.778L723.263 1046.71C725.748 1054.23 727.01 1062.11 727.001 1070.03C727.001 1110.72 693.925 1144 653 1144C612.075 1144 578.999 1110.93 578.999 1070.03C578.999 1062.76 580.044 1055.73 581.993 1049.1L411.301 950.587C406.426 955.697 400.849 960.088 394.737 963.63C359.115 983.975 313.949 971.894 293.592 936.5C273.238 901.103 285.325 855.957 320.733 835.397C326.833 831.886 333.402 829.26 340.242 827.598V630.448C333.326 628.79 326.685 626.147 320.522 622.6C285.111 602.254 273.024 556.897 293.381 521.5C313.739 486.103 359.112 474.022 394.523 494.37C400.698 497.948 406.327 502.394 411.238 507.572L582.025 409.005C580.011 402.175 578.992 395.091 578.999 387.97C578.999 347.068 612.075 314 653 314C693.925 314 727.001 347.065 727.001 387.97C727.001 395.322 725.933 402.418 723.944 409.115ZM706.156 439.476L877.301 538.247C874.576 547.77 873.794 557.743 875.003 567.573C876.211 577.404 879.385 586.891 884.336 595.47C894.754 613.585 911.725 625.595 930.561 630.275V827.673C929.6 827.907 928.644 828.163 927.695 828.435L704.167 441.453C704.843 440.807 705.507 440.146 706.156 439.476ZM601.879 441.496L378.355 828.472C377.388 828.193 376.416 827.933 375.439 827.693V630.275C394.275 625.595 411.246 613.585 421.664 595.47C426.625 586.874 429.802 577.367 431.006 567.517C432.209 557.666 431.415 547.675 428.67 538.138L599.766 439.396C600.456 440.108 601.161 440.81 601.879 441.493V441.496ZM673.678 459.026L897.15 845.915C892.031 850.798 887.644 856.392 884.122 862.527C880.61 868.624 877.984 875.19 876.323 882.027H429.684C428.02 875.19 425.392 868.624 421.878 862.527C418.345 856.435 413.965 850.874 408.87 846.01L632.386 459.043C639.087 460.972 646.027 461.947 653 461.94C660.18 461.94 667.116 460.924 673.678 459.026ZM707.727 1020.19L877.76 922.064C877.25 920.462 876.795 918.843 876.395 917.21H429.588C429.352 918.171 429.095 919.123 428.821 920.073L599.685 1018.69C606.585 1011.51 614.866 1005.81 624.028 1001.92C633.191 998.034 643.046 996.038 653 996.057C663.302 996.039 673.494 998.177 682.92 1002.33C692.345 1006.49 700.796 1012.58 707.727 1020.19Z" fill="#E535AB"/>
</g>
<g clip-path="url(#clip2_66_4)">
<circle cx="1932" cy="719.5" r="511.5" fill="url(#paint3_linear_66_4)"/>
<path d="M1580.5 846.271C1586.84 854.714 1595.08 861.54 1604.56 866.193C1614.8 871.267 1626.11 873.831 1637.54 873.675C1646.77 873.914 1655.97 872.351 1664.6 869.071C1671.51 866.35 1677.68 862.034 1682.6 856.475C1687.22 851.065 1690.6 844.701 1692.49 837.837C1694.55 830.422 1695.56 822.755 1695.5 815.06V788.275H1694.88C1688.89 797.774 1680.25 805.309 1670.03 809.946C1660.25 814.204 1649.7 816.376 1639.04 816.321C1628.63 816.408 1618.3 814.461 1608.63 810.588C1599.48 806.936 1591.12 801.563 1584 794.761C1576.89 787.951 1571.25 779.764 1567.42 770.7C1563.34 761.136 1561.29 750.835 1561.38 740.44C1561.29 730.069 1563.24 719.781 1567.11 710.159C1570.77 701.06 1576.13 692.737 1582.89 685.632C1589.64 678.577 1597.77 672.993 1606.77 669.23C1616.41 665.224 1626.76 663.213 1637.2 663.319C1641.96 663.359 1646.7 663.789 1651.39 664.603C1656.53 665.49 1661.56 666.976 1666.35 669.03C1677.75 673.986 1687.6 681.915 1694.88 691.985H1695.5V667.193H1716.55V815.06C1716.47 823.747 1715.45 832.4 1713.52 840.87C1711.48 850.023 1707.45 858.616 1701.72 866.038C1695.21 874.227 1686.87 880.777 1677.37 885.163C1667.05 890.254 1653.45 892.8 1636.58 892.8C1622.95 893.03 1609.41 890.539 1596.74 885.473C1584.63 880.285 1573.77 872.572 1564.87 862.85L1580.5 846.271ZM1584.31 739.843C1584.26 747.434 1585.73 754.959 1588.62 761.978C1591.38 768.712 1595.37 774.869 1600.4 780.129C1605.4 785.346 1611.35 789.567 1617.93 792.57C1624.78 795.679 1632.23 797.25 1639.75 797.174C1654.64 797.256 1669.01 791.641 1679.9 781.48C1685.25 776.438 1689.43 770.289 1692.16 763.461C1695.12 755.969 1696.48 747.937 1696.14 739.887C1696.2 732.34 1694.91 724.844 1692.34 717.751C1689.87 710.929 1686.03 704.689 1681.04 699.425C1676.05 694.16 1670.02 689.984 1663.34 687.16C1655.88 683.996 1647.85 682.42 1639.75 682.533C1632.22 682.464 1624.78 684.044 1617.93 687.16C1611.35 690.154 1605.4 694.368 1600.4 699.578C1595.37 704.848 1591.38 711.012 1588.62 717.751C1585.73 724.755 1584.26 732.265 1584.31 739.843ZM1802.34 816.321H1779.3V590.714H1848.82C1871.74 590.714 1889.85 595.71 1903.13 605.7C1916.41 615.691 1923.05 630.773 1923.05 650.946C1923.44 665.592 1918.13 679.819 1908.22 690.613C1898.35 701.356 1884.07 707.569 1865.37 709.251L1930.37 816.321H1902.29L1840.47 711.487H1802.34V816.321ZM1802.34 690.458H1843.13C1851.89 690.641 1860.63 689.567 1869.09 687.27C1875.28 685.615 1881.07 682.74 1886.13 678.814C1890.2 675.522 1893.36 671.238 1895.29 666.374C1897.25 661.444 1898.22 656.182 1898.17 650.879C1898.19 645.694 1897.22 640.554 1895.29 635.738C1893.3 630.845 1890.13 626.519 1886.06 623.143C1881.04 619.157 1875.24 616.282 1869.02 614.71C1860.55 612.52 1851.81 611.499 1843.06 611.677H1802.34V690.458ZM1969.93 590.714H2035.55C2058.51 590.714 2076.62 595.71 2089.89 605.7C2103.15 615.691 2109.79 630.773 2109.8 650.946C2109.8 671.133 2103.16 686.267 2089.89 696.346C2076.61 706.425 2058.49 711.472 2035.55 711.487H1992.68V816.321H1969.84L1969.93 590.714ZM1992.68 690.458H2029.64C2038.41 690.639 2047.16 689.566 2055.62 687.27C2061.81 685.614 2067.6 682.747 2072.67 678.837C2076.75 675.538 2079.92 671.258 2081.9 666.396C2083.85 661.466 2084.82 656.204 2084.77 650.901C2084.79 645.716 2083.82 640.576 2081.9 635.761C2079.9 630.867 2076.73 626.541 2072.67 623.165C2067.65 619.179 2061.84 616.304 2055.62 614.732C2047.14 612.541 2038.4 611.52 2029.64 611.699H1992.68V690.458ZM2340.16 780.639C2336.13 786.621 2331.37 792.079 2326 796.886C2320.18 802.136 2313.7 806.602 2306.72 810.168C2299.28 814.002 2291.42 816.973 2283.3 819.022C2274.62 821.183 2265.7 822.254 2256.74 822.209C2240.75 822.386 2224.88 819.376 2210.07 813.355C2196.08 807.71 2183.38 799.295 2172.74 788.618C2162.09 777.94 2153.7 765.22 2148.09 751.22C2136.2 720.684 2136.2 686.795 2148.09 656.258C2153.7 642.259 2162.09 629.538 2172.74 618.861C2183.38 608.183 2196.08 599.769 2210.07 594.123C2224.88 588.102 2240.75 585.092 2256.74 585.269C2271.16 585.337 2285.43 588.147 2298.8 593.548C2313.05 599.26 2325.49 608.731 2334.78 620.952L2314.73 635.938C2312.04 631.918 2308.82 628.271 2305.17 625.091C2300.95 621.372 2296.3 618.169 2291.32 615.551C2285.99 612.758 2280.38 610.533 2274.58 608.91C2268.78 607.237 2262.78 606.38 2256.74 606.364C2243.35 606.143 2230.08 608.864 2217.86 614.333C2206.75 619.267 2196.78 626.433 2188.55 635.384C2180.51 644.438 2174.28 654.961 2170.23 666.374C2161.75 690.396 2161.75 716.596 2170.23 740.617C2174.28 752.031 2180.51 762.553 2188.55 771.607C2196.69 780.657 2206.62 787.923 2217.7 792.946C2229.93 798.416 2243.2 801.136 2256.59 800.915C2262.53 800.917 2268.45 800.384 2274.3 799.321C2280.23 798.238 2286.01 796.416 2291.49 793.898C2297.29 791.252 2302.66 787.76 2307.43 783.538C2312.79 778.746 2317.46 773.225 2321.28 767.136L2340.16 780.639Z" fill="#244B5A"/>
<mask id="mask0_66_4" style="mask-type:luminance" maskUnits="userSpaceOnUse" x="1485" y="546" width="120" height="119">
<path d="M1544.92 546.23L1485.95 605.644L1545.36 664.623L1604.33 605.21L1544.92 546.23Z" fill="white"/>
</mask>
<g mask="url(#mask0_66_4)">
<path d="M1486.99 546.178L1485.95 555.453V546.178H1486.99Z" fill="#75CACA"/>
<path d="M1488.38 546.178L1485.95 567.694V555.453L1486.99 546.178H1488.38Z" fill="#74CBCA"/>
<path d="M1489.76 546.178L1485.95 580.045V567.782L1488.38 546.266L1489.76 546.178Z" fill="#74CBCA"/>
<path d="M1491.15 546.178L1485.95 592.198V580.045L1489.76 546.266L1491.15 546.178Z" fill="#73CBCA"/>
<path d="M1492.48 546.178L1485.84 604.461V592.198L1491.04 546.178H1492.48Z" fill="#73CBCA"/>
<path d="M1493.92 546.178L1485.95 616.702V604.395L1492.59 546.111L1493.92 546.178ZM1495.29 546.178L1485.95 628.943V616.702L1493.92 546.178H1495.29Z" fill="#72C9C9"/>
<path d="M1496.68 546.178L1485.95 641.206V628.943L1495.29 546.178H1496.68Z" fill="#70CACA"/>
<path d="M1498.05 546.178L1485.95 653.447V641.206L1496.68 546.178H1498.05Z" fill="#70CACA"/>
<path d="M1499.45 546.178L1486.17 664.515H1486.04V653.447L1498.14 546.178H1499.45Z" fill="#6FCAC8"/>
<path d="M1500.82 546.178L1487.54 664.581H1486.81H1486.17L1499.45 546.244L1500.82 546.178Z" fill="#6EC8C8"/>
<path d="M1502.22 546.178L1488.94 664.581H1487.54L1500.82 546.178H1502.22Z" fill="#6EC8C8"/>
<path d="M1503.54 546.178L1490.26 664.581H1488.89L1502.17 546.178H1503.54Z" fill="#6CC9C9"/>
<path d="M1504.98 546.178L1491.7 664.581H1490.26L1503.54 546.178H1504.98Z" fill="#6DC9C8"/>
<path d="M1506.35 546.178L1493.07 664.581H1491.7L1504.98 546.178H1506.35Z" fill="#69C7C8"/>
<path d="M1507.75 546.178L1494.47 664.581H1493.07L1506.35 546.178H1507.75Z" fill="#69C7C8"/>
<path d="M1509.14 546.178L1495.75 664.581H1494.38L1507.66 546.178H1509.14Z" fill="#69C8C7"/>
<path d="M1510.52 546.178L1497.24 664.581H1495.84L1509.23 546.178H1510.52Z" fill="#68C8C7"/>
<path d="M1511.91 546.178L1498.52 664.581H1497.15L1510.43 546.178H1511.91Z" fill="#67C7C7"/>
<path d="M1513.28 546.178L1500 664.581H1498.61L1512 546.178H1513.28Z" fill="#65C7C7"/>
<path d="M1514.61 546.178L1501.33 664.581H1499.96L1513.24 546.178H1514.61Z" fill="#64C7C7"/>
<path d="M1516.05 546.178L1502.77 664.581H1501.33L1514.61 546.178H1516.05Z" fill="#63C6C6"/>
<path d="M1517.44 546.178L1504.05 664.581H1502.68L1515.96 546.178H1517.44Z" fill="#60C6C6"/>
<path d="M1518.82 546.178L1505.54 664.581H1504.14L1517.53 546.178H1518.82Z" fill="#60C6C5"/>
<path d="M1520.21 546.178L1506.82 664.581H1505.45L1518.73 546.178H1520.21Z" fill="#5FC6C5"/>
<path d="M1521.58 546.178L1508.3 664.581H1506.91L1520.3 546.178H1521.58Z" fill="#5CC5C4"/>
<path d="M1522.98 546.178L1509.59 664.581H1508.21L1521.49 546.178H1522.98Z" fill="#5AC5C4"/>
<path d="M1524.35 546.178L1511.07 664.581H1509.67L1523.06 546.178H1524.35Z" fill="#5AC5C4"/>
<path d="M1525.68 546.178L1512.4 664.581H1511.02L1524.3 546.178H1525.68Z" fill="#57C4C4"/>
<path d="M1527.11 546.178L1513.84 664.581H1512.4L1525.68 546.178H1527.11Z" fill="#58C4C3"/>
<path d="M1528.51 546.178L1515.23 664.581H1513.84L1527.12 546.178H1528.51Z" fill="#55C4C3"/>
<path d="M1529.88 546.178L1516.6 664.581H1515.23L1528.51 546.178H1529.88Z" fill="#53C3C2"/>
<path d="M1531.28 546.178L1518 664.581H1516.6L1529.88 546.178H1531.28Z" fill="#52C3C2"/>
<path d="M1532.65 546.178L1519.37 664.581H1518L1531.28 546.178H1532.65Z" fill="#50C3C2"/>
<path d="M1534.04 546.178L1520.76 664.581H1519.37L1532.65 546.178H1534.04Z" fill="#50C1C0"/>
<path d="M1535.44 546.178L1522.16 664.581H1520.79L1534.06 546.178H1535.44Z" fill="#4BC2C0"/>
<path d="M1536.74 546.178L1523.46 664.581H1522.07L1535.35 546.178H1536.74Z" fill="#4CC1C0"/>
<path d="M1538.2 546.178L1524.92 664.581H1523.46L1536.74 546.178H1538.2Z" fill="#47C1BE"/>
<path d="M1539.58 546.178L1526.3 664.581H1524.9L1538.18 546.178H1539.58Z" fill="#46C0BE"/>
<path d="M1540.97 546.178L1527.69 664.581H1526.32L1539.6 546.178H1540.97Z" fill="#43C0BE"/>
<path d="M1542.34 546.178L1529.06 664.581H1527.67L1540.95 546.178H1542.34Z" fill="#40BFBD"/>
<path d="M1543.74 546.178L1530.46 664.581H1529.08L1542.36 546.178H1543.74Z" fill="#3BBFBD"/>
<path d="M1545.11 546.178L1531.83 664.581H1530.44L1543.71 546.178H1545.11Z" fill="#39BFBC"/>
<path d="M1546.5 546.178L1533.22 664.581H1531.85L1545.13 546.178H1546.5Z" fill="#34BEBD"/>
<path d="M1547.81 546.178L1534.53 664.581H1533.14L1546.41 546.178H1547.81Z" fill="#32BEBB"/>
<path d="M1549.27 546.178L1535.99 664.581H1534.53L1547.81 546.178H1549.27Z" fill="#2DBDBB"/>
<path d="M1550.64 546.178L1537.36 664.581H1535.97L1549.25 546.178H1550.64Z" fill="#24BCBB"/>
<path d="M1552.04 546.178L1538.76 664.581H1537.38L1550.66 546.178H1552.04Z" fill="#21BCB9"/>
<path d="M1553.41 546.178L1540.13 664.581H1538.73L1552.01 546.178H1553.41Z" fill="#18BBB9"/>
<path d="M1554.8 546.178L1541.52 664.581H1540.13L1553.41 546.178H1554.8Z" fill="#0FBAB9"/>
<path d="M1556.18 546.178L1542.9 664.581H1541.52L1554.8 546.178H1556.18Z" fill="#03BBB8"/>
<path d="M1557.57 546.178L1544.29 664.581H1542.9L1556.18 546.178H1557.57Z" fill="#06B8B6"/>
<path d="M1558.88 546.178L1545.6 664.581H1544.22L1557.5 546.178H1558.88Z" fill="#06B8B6"/>
<path d="M1560.34 546.178L1547.06 664.581H1545.6L1558.88 546.178H1560.34Z" fill="#03B7B5"/>
<path d="M1561.71 546.178L1548.43 664.581H1547.06L1560.34 546.178H1561.71Z" fill="#04B7B4"/>
<path d="M1563.1 546.178L1549.82 664.581H1548.43L1561.71 546.178H1563.1Z" fill="#00B6B5"/>
<path d="M1564.5 546.178L1551.22 664.581H1549.85L1563.12 546.178H1564.5Z" fill="#03B6B4"/>
<path d="M1565.87 546.178L1552.59 664.581H1551.2L1564.47 546.178H1565.87Z" fill="#05B6B2"/>
<path d="M1567.26 546.178L1553.98 664.581H1552.61L1565.89 546.178H1567.26Z" fill="#01B5B1"/>
<path d="M1568.64 546.178L1555.36 664.581H1553.96L1567.24 546.178H1568.64Z" fill="#01B5B1"/>
<path d="M1569.94 546.178L1556.66 664.581H1555.29L1568.57 546.178H1569.94Z" fill="#00B4B1"/>
<path d="M1571.4 546.178L1558.12 664.581H1556.66L1569.94 546.178H1571.4Z" fill="#00B3B0"/>
<path d="M1572.8 546.178L1559.52 664.581H1558.15L1571.42 546.178H1572.8Z" fill="#00B3B0"/>
<path d="M1574.17 546.178L1560.89 664.581H1559.5L1572.77 546.178H1574.17Z" fill="#00B2AF"/>
<path d="M1575.56 546.178L1562.28 664.581H1560.91L1574.19 546.178H1575.56Z" fill="#00B2AE"/>
<path d="M1576.94 546.178L1563.66 664.581H1562.26L1575.54 546.178H1576.94Z" fill="#00B1AE"/>
<path d="M1578.33 546.178L1565.05 664.581H1563.68L1576.96 546.178H1578.33Z" fill="#00B1AD"/>
<path d="M1579.7 546.178L1566.42 664.581H1565.03L1578.31 546.178H1579.7Z" fill="#00B0AC"/>
<path d="M1581.01 546.178L1567.73 664.581H1566.33L1579.61 546.178H1581.01Z" fill="#00AFAC"/>
<path d="M1603.54 546.177H1604.31V664.493H1567.73L1581.01 546.089L1603.54 546.177Z" fill="#00AFAC"/>
</g>
<mask id="mask1_66_4" style="mask-type:luminance" maskUnits="userSpaceOnUse" x="1672" y="570" width="70" height="70">
<path d="M1706.76 570.003L1672.17 604.847L1707.01 639.436L1741.6 604.592L1706.76 570.003Z" fill="white"/>
</mask>
<g mask="url(#mask1_66_4)">
<path d="M1741.6 590.25L1740.65 569.951H1741.6V590.25Z" fill="#75CACA"/>
<path d="M1741.6 611.566L1739.68 569.951H1740.65L1741.6 590.25V611.566Z" fill="#74CBCA"/>
<path d="M1741.6 632.861L1738.68 569.951H1739.68L1741.6 611.566V632.861Z" fill="#74CBCA"/>
<path d="M1740.92 639.413L1737.69 569.951H1738.68L1741.6 632.861V639.501L1740.92 639.413Z" fill="#73CBCA"/>
<path d="M1739.92 639.413L1736.69 569.951H1737.69L1740.92 639.413H1739.92ZM1738.93 639.413L1735.69 569.951H1736.69L1739.92 639.413H1738.93Z" fill="#72C9C9"/>
<path d="M1737.93 639.413L1734.7 569.951H1735.69L1738.93 639.413H1737.93Z" fill="#70CACA"/>
<path d="M1736.96 639.413L1733.72 569.951H1734.72L1737.95 639.413H1736.96Z" fill="#6FCAC8"/>
<path d="M1735.94 639.413L1732.71 569.951H1733.72L1736.98 639.413H1735.94Z" fill="#6EC8C8"/>
<path d="M1734.96 639.413L1731.73 569.951H1732.73L1735.94 639.413H1734.96Z" fill="#6EC8C8"/>
<path d="M1733.97 639.413L1730.74 569.951H1731.73L1734.96 639.413H1733.97Z" fill="#6CC9C9"/>
<path d="M1732.97 639.413L1729.74 569.951H1730.74L1733.97 639.413H1732.97Z" fill="#6DC9C8"/>
<path d="M1731.98 639.413L1728.74 569.951H1729.74L1732.97 639.413H1731.98Z" fill="#69C7C8"/>
<path d="M1730.98 639.413L1727.75 569.951H1728.74L1731.98 639.413H1730.98Z" fill="#69C7C8"/>
<path d="M1730.01 639.413L1726.75 569.951H1727.75L1730.98 639.413H1730.01Z" fill="#69C8C7"/>
<path d="M1729.01 639.413L1725.78 569.951H1726.75L1730.01 639.413H1729.01Z" fill="#68C8C7"/>
<path d="M1728.01 639.413L1724.87 569.951H1725.87L1729.1 639.413H1728.01Z" fill="#67C7C7"/>
<path d="M1727.08 639.413L1723.85 569.951H1724.87L1728.1 639.413H1727.08Z" fill="#65C7C7"/>
<path d="M1726.02 639.413L1722.79 569.951H1723.79L1727.08 639.413H1726.02Z" fill="#64C7C7"/>
<path d="M1725.03 639.413L1721.79 569.951H1722.79L1726.02 639.413H1725.03Z" fill="#63C6C6"/>
<path d="M1724.05 639.413L1720.8 569.951H1721.79L1725.03 639.413H1724.05Z" fill="#60C6C6"/>
<path d="M1723.06 639.413L1719.83 569.951H1720.8L1724.05 639.413H1723.06Z" fill="#60C6C5"/>
<path d="M1722.06 639.413L1718.83 569.951H1719.83L1723.06 639.413H1722.06Z" fill="#5FC6C5"/>
<path d="M1721.06 639.413L1717.83 569.951H1718.83L1722.06 639.413H1721.06Z" fill="#5FC6C5"/>
<path d="M1720.07 639.413L1716.84 569.951H1717.83L1721.06 639.413H1720.07Z" fill="#5CC5C4"/>
<path d="M1719.07 639.413L1715.84 569.951H1716.84L1720.07 639.413H1719.07Z" fill="#5AC5C4"/>
<path d="M1718.08 639.413L1714.85 569.951H1715.84L1719.07 639.413H1718.08Z" fill="#5AC5C4"/>
<path d="M1717.1 639.413L1713.81 569.951H1714.8L1718.03 639.413H1717.1Z" fill="#57C4C4"/>
<path d="M1716.02 639.413L1712.79 569.951H1713.81L1717.06 639.413H1716.02Z" fill="#58C4C3"/>
<path d="M1715.11 639.413L1711.88 569.951H1712.88L1716.02 639.413H1715.11Z" fill="#55C4C3"/>
<path d="M1714.12 639.413L1710.88 569.951H1711.88L1715.11 639.413H1714.12ZM1713.12 639.413L1709.89 569.951H1710.88L1714.12 639.413H1713.12Z" fill="#53C3C2"/>
<path d="M1712.12 639.413L1708.89 569.951H1709.89L1713.12 639.413H1712.12Z" fill="#52C3C2"/>
<path d="M1711.15 639.413L1707.9 569.951H1708.89L1712.12 639.413H1711.15Z" fill="#50C3C2"/>
<path d="M1710.15 639.413L1706.92 569.951H1707.9L1711.15 639.413H1710.15Z" fill="#50C1C0"/>
<path d="M1709.16 639.413L1705.93 569.951H1706.92L1710.15 639.413H1709.16Z" fill="#4DC2C1"/>
<path d="M1708.16 639.413L1704.95 569.951H1705.95L1709.18 639.413H1708.16Z" fill="#4CC2C0"/>
<path d="M1707.17 639.413L1703.93 569.951H1704.95L1708.18 639.413H1707.17Z" fill="#4BC0BF"/>
<path d="M1706.17 639.413L1702.94 569.951H1703.93L1707.17 639.413H1706.17Z" fill="#47C1BE"/>
<path d="M1705.17 639.413L1701.94 569.951H1702.94L1706.17 639.413H1705.17Z" fill="#46C0BE"/>
<path d="M1704.2 639.413L1700.95 569.951H1701.94L1705.17 639.413H1704.2Z" fill="#43C0BE"/>
<path d="M1703.2 639.413L1699.97 569.951H1700.95L1704.2 639.413H1703.2Z" fill="#41C0BE"/>
<path d="M1702.21 639.413L1698.98 569.951H1699.97L1703.2 639.413H1702.21Z" fill="#40BFBD"/>
<path d="M1701.21 639.413L1697.98 569.951H1698.98L1702.21 639.413H1701.21Z" fill="#3BBFBD"/>
<path d="M1700.22 639.413L1696.98 569.951H1697.98L1701.21 639.413H1700.22Z" fill="#3CBFBC"/>
<path d="M1699.22 639.413L1696.1 569.951H1697.09L1700.33 639.413H1699.22Z" fill="#39BFBC"/>
<path d="M1698.31 639.413L1695.08 569.951H1696.1L1699.33 639.413H1698.31Z" fill="#34BEBD"/>
<path d="M1697.25 639.413L1694.02 569.951H1694.99L1698.31 639.413H1697.25Z" fill="#32BEBB"/>
<path d="M1696.25 639.413L1693.02 569.951H1694.02L1697.25 639.413H1696.25Z" fill="#2FBEBC"/>
<path d="M1695.26 639.413L1692.03 569.951H1693.02L1696.25 639.413H1695.26Z" fill="#2DBDBB"/>
<path d="M1694.26 639.413L1691.03 569.951H1692.03L1695.26 639.413H1694.26Z" fill="#2BBDBA"/>
<path d="M1693.27 639.413L1690.03 569.951H1691.03L1694.26 639.413H1693.27Z" fill="#24BCBB"/>
<path d="M1692.27 639.413L1689.04 569.951H1690.03L1693.27 639.413H1692.27Z" fill="#21BCB9"/>
<path d="M1691.3 639.413L1688.04 569.951H1689.04L1692.27 639.413H1691.3Z" fill="#18BBB9"/>
<path d="M1690.3 639.413L1687.07 569.951H1688.04L1691.3 639.413H1690.3Z" fill="#16BAB9"/>
<path d="M1689.3 639.413L1686.07 569.951H1687.07L1690.3 639.413H1689.3Z" fill="#11BAB7"/>
<path d="M1688.31 639.413L1685.03 569.951H1686.03L1689.26 639.413H1688.31Z" fill="#03BBB8"/>
<path d="M1687.25 639.413L1684.01 569.951H1685.03L1688.26 639.413H1687.25Z" fill="#06B8B6"/>
<path d="M1686.32 639.413L1683.08 569.951H1684.08L1687.25 639.413H1686.32Z" fill="#06B8B6"/>
<path d="M1685.32 639.413L1682.09 569.951H1683.08L1686.32 639.413H1685.32Z" fill="#06B8B6"/>
<path d="M1684.35 639.413L1681.11 569.951H1682.09L1685.32 639.413H1684.35Z" fill="#00B7B6"/>
<path d="M1683.35 639.413L1680.12 569.951H1681.12L1684.35 639.413H1683.35Z" fill="#03B7B5"/>
<path d="M1682.35 639.413L1679.12 569.951H1680.12L1683.35 639.413H1682.35Z" fill="#04B7B4"/>
<path d="M1681.36 639.413L1678.13 569.951H1679.12L1682.35 639.413H1681.36Z" fill="#00B6B5"/>
<path d="M1680.36 639.413L1677.13 569.951H1678.13L1681.36 639.413H1680.36Z" fill="#00B6B5"/>
<path d="M1679.37 639.413L1676.18 569.951H1677.18L1680.41 639.413H1679.37Z" fill="#00B6B5"/>
<path d="M1678.39 639.413L1675.14 569.951H1676.18L1679.41 639.413H1678.39ZM1677.4 639.413L1674.17 569.951H1675.14L1678.39 639.413H1677.4Z" fill="#03B6B4"/>
<path d="M1676.4 639.413L1673.17 569.951H1674.17L1677.4 639.413H1676.4Z" fill="#05B6B2"/>
<path d="M1675.4 639.413L1672.17 569.951H1673.17L1676.4 639.413H1675.4Z" fill="#01B5B1"/>
<path d="M1674.41 639.413L1672.2 591.179V569.951L1675.43 639.413H1674.41ZM1673.41 639.413L1672.17 612.496V591.113L1674.39 639.347L1673.41 639.413Z" fill="#01B5B1"/>
<path d="M1672.42 639.413L1672.17 633.813V612.496L1673.41 639.413H1672.42Z" fill="#00B4B1"/>
<path d="M1672.17 633.812L1672.42 639.413H1672.17V633.812Z" fill="#00B4B1"/>
</g>
<path d="M1547.52 569.598L1511.8 605.568L1547.81 641.295H1578.24L1546.33 609.619L1703.93 609.043L1690.12 622.945H1705.33L1723.19 604.97L1705.2 587.107H1689.99L1703.89 600.92L1546.3 601.517L1577.98 569.598H1547.52Z" fill="#244B5A"/>
</g>
<circle cx="3192" cy="719.5" r="511.5" fill="url(#paint4_linear_66_4)"/>
<path d="M2904.72 761.563C2905.86 785.149 2929.45 774.158 2939.98 766.83C2950.06 759.731 2953.04 765.685 2953.95 751.946C2954.64 742.786 2955.56 733.856 2955.1 724.696C2939.76 723.322 2923.27 726.986 2910.67 736.145C2904.03 740.725 2892.13 755.839 2904.72 761.563Z" fill="#F6D2A2"/>
<path d="M3374.84 1051.46C3392.93 1062.69 3426.13 1096.58 3398.88 1113.06C3372.78 1136.88 3358.12 1086.73 3335.22 1079.86C3345.07 1066.35 3357.43 1053.98 3374.84 1051.46Z" fill="#F6D2A2"/>
<path d="M3051.04 1089.71C3029.75 1092.91 3017.84 1112.15 2999.98 1121.99C2983.26 1131.84 2976.85 1118.79 2975.48 1116.04C2972.96 1114.9 2973.19 1117.19 2969.07 1113.06C2953.49 1088.56 2985.1 1070.7 3001.58 1058.56C3024.48 1053.98 3038.91 1073.91 3051.04 1089.71Z" fill="#F6D2A2"/>
<path d="M3475.36 758.587C3474.22 782.173 3450.63 771.181 3440.1 763.854C3430.02 756.755 3427.05 762.709 3426.13 748.969C3425.44 739.81 3424.53 730.879 3424.99 721.719C3440.33 720.345 3456.82 724.009 3469.41 733.169C3475.82 737.749 3487.96 752.862 3475.36 758.587Z" fill="#F6D2A2"/>
<path d="M3412.85 470.974C3494.6 442.122 3430.71 330.145 3359.5 379.607C3312.78 339.534 3248.43 332.206 3180.88 332.206C3114.7 337.473 3051.73 349.609 3007.77 388.08C2936.78 342.282 2871.29 452.197 2954.64 479.905C2931.28 570.585 2957.85 663.097 2954.18 755.381C2950.75 838.275 2928.99 949.336 2975.02 1023.76C3014.18 1087.42 3098.45 1110.09 3167.83 1112.61C3256.45 1115.81 3363.85 1094.06 3406.9 1008.19C3448.11 926.437 3436.67 824.536 3431.4 736.374C3426.13 647.297 3435.98 556.846 3412.85 470.974Z" fill="#69D7E2"/>
<path d="M3481.55 744.618C3479.26 739.809 3474.91 734.313 3470.78 731.336C3460.25 723.78 3446.74 719.658 3432.77 719.2C3432.31 705.003 3431.86 689.431 3431.86 669.738V651.877C3431.63 595.545 3430.94 570.814 3427.73 539.9C3425.22 515.627 3421.32 493.186 3415.83 472.119C3434.38 465.02 3446.51 453.342 3451.32 438.229C3455.9 424.26 3453.61 408.46 3445.82 394.491C3437.81 380.752 3424.99 370.447 3410.1 366.325C3394.07 361.975 3376.67 365.181 3359.95 376.401C3345.07 363.807 3327.89 354.189 3308.66 346.861C3274.54 334.267 3234.92 329.458 3181.11 329.458V331.748L3180.88 329.458C3123.41 334.038 3080.81 342.968 3045.55 360.143C3031.35 367.012 3018.76 375.256 3007.77 384.874C2990.82 374.34 2973.19 371.821 2956.93 376.859C2941.82 381.439 2928.76 392.201 2920.98 406.17C2913.19 420.138 2911.36 436.168 2916.63 449.907C2921.89 463.646 2934.03 474.409 2952.12 481.05C2946.4 504.178 2943.42 528.68 2942.96 555.701C2942.5 582.035 2943.65 603.102 2947.77 650.732C2950.75 686.225 2951.89 702.484 2952.35 722.177C2936.78 721.49 2921.21 725.612 2909.53 734.084C2905.41 737.061 2900.83 742.328 2898.77 747.366C2895.79 753.778 2896.93 759.502 2902.89 762.937C2903.8 773.929 2909.99 778.966 2919.38 778.051C2926.24 777.364 2934.49 773.7 2941.59 768.662C2943.19 767.517 2944.79 766.601 2946.4 765.914C2947.08 765.685 2947.54 765.456 2948.23 765.227C2948.23 765.227 2949.6 764.769 2950.06 764.54C2950.75 764.311 2951.43 764.082 2951.89 763.624C2951.43 774.387 2950.52 785.607 2948.46 811.254C2946.17 840.107 2945.02 855.907 2944.56 873.54C2942.5 939.031 2950.29 986.661 2973.65 1024.44C2980.97 1036.35 2989.9 1046.89 3000.44 1056.5C2998.38 1057.88 2989.68 1064.29 2986.93 1066.35C2977.31 1073.68 2970.67 1079.86 2966.78 1086.73C2961.74 1095.66 2961.74 1104.59 2967.46 1113.98L2967.69 1114.21L2967.92 1114.44C2970.44 1116.96 2971.81 1117.64 2973.65 1117.64H2973.87H2974.33C2974.56 1118.1 2974.79 1118.33 2975.02 1118.79C2975.71 1119.93 2976.39 1120.85 2977.08 1121.77C2982.81 1128.41 2990.82 1130.01 3001.58 1123.6C3007.31 1120.62 3011.43 1117.19 3020.13 1109.86C3020.36 1109.63 3020.36 1109.63 3020.59 1109.4C3034.56 1097.49 3041.43 1093.14 3051.73 1091.54L3055.4 1090.85C3056.77 1091.54 3058.14 1092 3059.75 1092.68C3092.26 1105.74 3130.05 1112.83 3168.29 1114.21C3217.75 1116.04 3265.38 1109.86 3305.68 1095.2C3316.44 1091.31 3326.52 1086.73 3336.14 1081.69C3342.09 1083.98 3347.13 1088.79 3356.75 1100.01C3357.21 1100.47 3357.21 1100.47 3357.43 1100.93C3357.89 1101.39 3357.89 1101.61 3358.12 1101.84C3358.58 1102.53 3359.27 1102.99 3359.72 1103.68C3367.28 1112.61 3372.32 1116.96 3378.04 1119.48C3385.6 1122.68 3392.93 1121.08 3400.48 1114.21C3413.77 1105.97 3414.68 1093.14 3405.98 1078.49C3399.8 1068.18 3389.03 1057.42 3378.96 1050.55C3390.87 1038.87 3401.17 1024.9 3409.19 1009.1C3431.17 965.136 3439.64 913.842 3439.18 847.893C3438.95 824.536 3438.04 804.155 3435.52 765.227V764.082C3436.66 764.54 3437.81 765.227 3438.95 766.143C3446.05 770.952 3454.3 774.845 3461.17 775.532C3470.56 776.448 3476.74 771.41 3477.65 760.418C3483.38 756.754 3484.52 751.03 3481.55 744.618ZM3408.73 371.134C3422.47 374.798 3434.37 384.416 3441.7 397.239C3449.03 410.063 3451.09 424.489 3446.97 437.313C3442.62 450.823 3431.63 461.586 3414.45 467.997C3411.02 455.632 3406.9 443.495 3402.32 431.817C3408.96 426.092 3412.16 418.993 3406.9 408.918C3401.63 398.842 3392.47 397.697 3383.08 400.674C3377.13 392.888 3370.49 386.019 3363.62 379.607C3378.73 369.989 3394.3 367.241 3408.73 371.134ZM2920.52 448.533C2915.71 436.168 2917.31 421.512 2924.64 408.689C2931.97 395.865 2943.88 385.79 2958.07 381.668C2972.73 377.317 2988.53 379.378 3004.1 388.538C2995.17 396.552 2987.16 405.712 2980.29 415.787C2968.38 409.605 2956.24 408.46 2949.37 421.054C2942.27 434.565 2950.52 443.037 2962.2 449.449C2960.59 453.342 2958.99 457.464 2957.62 461.586C2956.01 466.623 2954.41 471.89 2953.04 477.157C2936.32 470.745 2925.33 460.899 2920.52 448.533ZM2948.23 760.647C2948 760.647 2946.63 761.105 2946.63 761.334C2945.94 761.563 2945.25 761.792 2944.56 762.25C2942.73 762.937 2940.9 764.082 2939.07 765.456C2932.66 770.036 2924.87 773.471 2918.92 773.929C2912.05 774.616 2908.15 771.639 2907.47 763.395C2912.28 761.792 2914.34 760.647 2916.17 757.899L2912.51 755.151C2911.13 756.983 2909.76 757.67 2905.64 759.044C2905.41 759.044 2905.41 759.044 2905.18 759.273C2901.51 757.212 2900.83 754.007 2902.89 749.427C2904.72 745.305 2908.84 740.496 2912.28 737.977C2923.27 729.963 2937.92 726.07 2952.58 726.986C2952.58 732.71 2952.81 738.435 2952.58 743.931C2952.58 744.618 2952.58 745.076 2952.35 745.763C2952.12 748.969 2952.12 750.343 2951.89 751.946C2951.2 758.586 2950.75 759.502 2948.23 760.647ZM3017.38 1106.19C3017.15 1106.42 3017.15 1106.42 3016.93 1106.65C3008.45 1113.98 3004.33 1116.96 2999.06 1119.93C2990.36 1125.2 2984.41 1124.06 2980.29 1119.02C2979.6 1118.33 2979.14 1117.41 2978.68 1116.73C2978.45 1116.5 2978.23 1116.04 2978 1115.81C2978 1115.81 2978 1115.81 2978 1115.58C2978.45 1111.46 2980.06 1108.48 2984.18 1102.07C2984.41 1101.84 2984.41 1101.84 2984.41 1101.61C2986.93 1097.95 2988.07 1095.89 2989.22 1093.37L2985.1 1091.54C2984.18 1093.6 2983.03 1095.43 2980.74 1099.1C2980.52 1099.32 2980.52 1099.32 2980.52 1099.55C2976.39 1105.51 2974.56 1109.17 2973.65 1113.29H2973.42C2973.42 1113.29 2973.42 1113.29 2973.19 1113.29H2972.73C2972.27 1113.06 2971.59 1112.61 2970.67 1111.69C2961.74 1097.49 2968.84 1085.36 2988.99 1070.24C2991.51 1068.41 2999.98 1062.46 3002.27 1060.62C3002.73 1060.62 3003.19 1060.4 3003.64 1060.17C3016.01 1070.7 3030.44 1079.86 3046.46 1087.42C3046.46 1087.65 3046.69 1087.87 3046.92 1088.1C3037.53 1090.39 3030.21 1095.2 3017.38 1106.19ZM3401.86 1081.23C3408.96 1093.14 3408.73 1102.76 3399.8 1109.4C3399.11 1108.03 3398.65 1106.42 3397.74 1104.13C3397.74 1103.9 3397.74 1103.9 3397.51 1103.68C3394.3 1094.97 3392.24 1091.31 3388.35 1087.19L3385.14 1090.39C3388.58 1093.6 3390.18 1097.03 3393.39 1105.05C3393.39 1105.28 3393.39 1105.28 3393.61 1105.51C3394.76 1108.48 3395.45 1110.32 3396.13 1111.92C3390.18 1116.96 3384.91 1117.87 3379.42 1115.35C3374.61 1113.29 3370.03 1108.94 3362.7 1100.7C3362.24 1100.24 3361.78 1099.55 3361.33 1098.87C3361.1 1098.64 3360.87 1098.41 3360.64 1097.95C3360.18 1097.49 3360.18 1097.49 3359.95 1097.03C3351.48 1087.19 3346.44 1081.92 3340.95 1078.94C3353.77 1071.62 3365.22 1063.37 3375.52 1053.76C3385.14 1060.85 3395.9 1071.39 3401.86 1081.23ZM3405.06 1007.04C3385.37 1046.66 3350.56 1074.59 3303.85 1091.54C3264.01 1105.97 3216.83 1111.92 3168.06 1110.09C3084.02 1107.11 3011.2 1077.8 2977.08 1022.38C2954.18 985.516 2946.63 938.573 2948.69 873.998C2949.37 856.365 2950.29 840.565 2952.58 811.712C2955.1 779.195 2955.78 769.807 2956.47 755.151C2956.93 744.618 2956.93 733.855 2956.7 722.406C2956.24 702.255 2955.1 686.225 2952.12 650.274C2948 602.644 2946.85 581.806 2947.31 555.701C2948 521.352 2952.58 491.125 2962.2 462.502C2977.77 416.016 3006.39 384.645 3047.61 364.265C3082.19 347.319 3124.09 338.618 3181.11 334.038C3234.47 334.038 3273.39 338.847 3307.06 351.212C3347.36 366.096 3377.36 392.201 3397.97 432.275C3411.25 464.791 3419.03 499.827 3423.15 540.129C3426.36 570.814 3427.05 595.545 3427.28 651.648V669.509C3427.51 697.217 3427.96 716.681 3429.11 736.145C3429.57 743.702 3429.8 746.908 3430.94 764.998C3433.46 803.926 3434.37 824.078 3434.6 847.435C3435.06 913.155 3426.82 963.762 3405.06 1007.04ZM3475.14 756.296C3474.91 756.296 3474.68 756.067 3474.45 756.067C3470.33 754.693 3468.95 753.778 3467.58 752.175L3463.91 754.922C3465.98 757.67 3468.04 758.815 3472.62 760.418C3471.7 768.662 3467.81 771.639 3461.17 770.952C3455.21 770.494 3447.43 766.83 3441.02 762.479C3439.18 761.105 3437.35 760.189 3435.52 759.273C3435.29 759.273 3435.06 759.044 3434.83 759.044C3433.92 746.45 3433.92 743.244 3433.46 736.603C3433.23 732.481 3433 728.36 3432.77 724.238C3445.6 724.467 3458.19 728.36 3467.81 735.458C3471.24 737.977 3475.36 742.786 3477.2 746.908C3479.49 750.801 3479.03 754.236 3475.14 756.296Z" fill="black"/>
<path d="M3215.6 568.363C3215.83 580.041 3218.12 592.865 3216.06 605.23C3212.85 611.184 3206.9 611.871 3201.63 614.161C3194.3 613.016 3188.12 608.207 3185.14 601.338C3183.31 587.369 3185.6 574.088 3186.29 560.119C3186.29 559.661 3194.99 560.348 3202.77 562.638C3209.42 564.699 3215.6 568.134 3215.6 568.363Z" fill="white"/>
<path d="M3150.79 569.279C3144.38 593.552 3159.27 633.167 3183.77 600.65C3181.94 586.911 3184 573.63 3184.68 560.119C3184.91 558.974 3151.02 567.676 3150.79 569.279Z" fill="white"/>
<path d="M3218.35 579.125C3217.89 572.256 3217.66 569.508 3217.66 566.073V564.47L3216.06 564.012L3187.2 555.081V553.479L3184.23 554.165H3184V554.394L3151.48 562.638L3150.34 562.867L3149.88 564.012C3144.84 576.149 3145.99 594.468 3152.4 605.688C3159.72 618.512 3171.63 618.741 3183.77 604.085C3187.2 610.726 3193.62 615.306 3200.94 616.451H3201.63L3202.32 616.222C3203.23 615.764 3204.15 615.535 3205.75 614.848C3205.98 614.848 3205.98 614.848 3206.21 614.619C3212.85 612.329 3215.6 610.497 3217.89 606.146L3218.12 605.917V605.459C3218.8 601.338 3219.03 596.987 3219.03 592.178C3219.03 588.743 3218.8 585.537 3218.35 579.125ZM3181.71 570.653C3181.48 574.775 3181.25 576.378 3181.02 578.667C3180.56 587.14 3180.56 593.552 3181.25 599.964C3170.49 613.703 3162.01 613.703 3156.29 603.398C3150.79 593.781 3149.65 577.523 3153.77 566.76L3182.62 559.432C3182.39 562.409 3182.17 565.386 3181.71 570.653ZM3213.77 604.543C3212.16 607.291 3210.1 608.665 3204.61 610.497C3204.38 610.497 3204.38 610.497 3204.15 610.726C3202.77 611.184 3201.86 611.642 3201.17 611.871C3194.99 610.726 3189.72 606.604 3187.2 600.88C3186.52 594.697 3186.52 588.285 3186.97 579.812C3187.2 577.523 3187.2 575.92 3187.66 571.798C3188.12 566.531 3188.35 563.325 3188.35 560.348L3213.31 567.905C3213.31 570.882 3213.54 573.63 3214 579.583C3214.45 585.766 3214.68 588.972 3214.68 592.636C3214.68 596.987 3214.45 600.88 3213.77 604.543Z" fill="black"/>
<path d="M3012.95 468.596C3034.02 550.575 3165.23 529.508 3160.19 447.3C3154.24 348.834 2992.8 367.841 3012.95 468.596Z" fill="white"/>
<path d="M3162.48 447.071C3161.11 423.256 3150.58 404.708 3133.17 393.029C3117.6 382.496 3096.99 378.374 3076.61 380.893C3056.23 383.641 3037.45 392.8 3025.09 407.227C3011.35 423.256 3006.08 444.323 3010.89 468.596C3032.42 552.865 3167.52 532.485 3162.48 447.071ZM3015.01 468.138C3010.43 445.01 3015.47 425.317 3028.29 410.433C3039.97 396.922 3057.61 387.992 3077.07 385.473C3096.53 382.954 3116 386.847 3130.65 396.922C3146.91 407.914 3156.76 425.088 3158.13 447.758C3162.94 527.676 3035.39 546.911 3015.01 468.138Z" fill="black"/>
<path d="M3049.13 479.13C3061.4 479.13 3071.34 468.365 3071.34 455.086C3071.34 441.807 3061.4 431.042 3049.13 431.042C3036.87 431.042 3026.92 441.807 3026.92 455.086C3026.92 468.365 3036.87 479.13 3049.13 479.13Z" fill="black"/>
<path d="M3059.21 466.764C3062.12 466.764 3064.47 463.996 3064.47 460.581C3064.47 457.167 3062.12 454.398 3059.21 454.398C3056.3 454.398 3053.94 457.167 3053.94 460.581C3053.94 463.996 3056.3 466.764 3059.21 466.764Z" fill="white"/>
<path d="M3196.97 453.269C3213.23 547.384 3367.11 522.424 3344.89 427.622C3324.97 342.438 3191.47 366.024 3196.97 453.269Z" fill="white"/>
<path d="M3346.96 427.164C3326.58 339.461 3189.18 363.505 3194.68 453.498V453.727C3202.23 498.152 3241.85 520.822 3285.59 513.494C3305.51 510.059 3323.37 500.441 3335.05 486.244C3347.87 470.444 3352.45 450.064 3346.96 427.164ZM3331.61 483.496C3320.62 496.778 3303.91 505.937 3284.9 509.143C3243.45 516.013 3206.36 494.717 3199.03 453.04C3193.99 368.314 3323.6 345.644 3342.83 428.08C3347.87 449.835 3343.75 468.841 3331.61 483.496Z" fill="black"/>
<path d="M3234.75 473.192C3246.76 473.192 3256.5 462.427 3256.5 449.148C3256.5 435.868 3246.76 425.104 3234.75 425.104C3222.74 425.104 3213 435.868 3213 449.148C3213 462.427 3222.74 473.192 3234.75 473.192Z" fill="black"/>
<path d="M3244.83 460.826C3247.61 460.826 3249.86 458.058 3249.86 454.644C3249.86 451.229 3247.61 448.461 3244.83 448.461C3242.04 448.461 3239.79 451.229 3239.79 454.644C3239.79 458.058 3242.04 460.826 3244.83 460.826Z" fill="white"/>
<path d="M3155.52 519.809C3137.43 521.412 3122.78 542.708 3132.17 559.653C3144.53 582.094 3172.24 557.592 3189.41 559.882C3209.34 560.34 3225.59 580.949 3241.39 563.546C3259.03 544.311 3233.84 525.534 3213.92 517.29L3155.52 519.809Z" fill="#F6D2A2"/>
<path d="M3243.68 535.152C3237.5 527.366 3226.74 520.267 3215.06 515.458L3214.6 515.229H3214.14L3155.52 517.519C3135.14 519.351 3120.49 542.937 3130.33 560.799C3134.23 567.668 3139.49 571.103 3146.59 571.561C3151.86 571.79 3157.35 570.645 3165.83 567.668C3166.51 567.439 3167.43 567.21 3168.57 566.752C3180.02 562.86 3184.6 561.715 3189.18 562.402H3189.41C3194.91 562.402 3199.49 564.004 3208.19 567.439C3217.81 571.332 3220.78 572.477 3225.59 572.935C3232.23 573.393 3237.96 571.103 3243.23 565.378C3252.16 555.532 3251.7 544.998 3243.68 535.152ZM3239.79 562.173C3235.44 566.981 3231.09 568.584 3225.82 568.355C3221.7 568.126 3218.95 566.981 3209.79 563.318C3200.63 559.425 3195.6 558.051 3189.64 557.822C3183.92 557.135 3179.11 558.28 3166.97 562.402C3165.83 562.86 3164.91 563.089 3164.22 563.318C3147.51 569.042 3139.49 568.584 3134 558.509C3125.75 543.624 3138.35 523.473 3155.52 521.87L3213.46 519.58C3224.45 524.16 3234.3 530.801 3240.02 537.9C3246.89 546.143 3247.12 554.387 3239.79 562.173Z" fill="#231F20"/>
<path d="M3218.49 509.963C3211.4 483.858 3151.86 487.751 3153.23 518.893C3156.21 542.021 3225.36 535.839 3218.49 509.963Z" fill="black"/>
<circle cx="672" cy="1979.5" r="511.5" fill="url(#paint5_linear_66_4)"/>
<g clip-path="url(#clip3_66_4)">
<path d="M671.877 2090.73C728.013 2090.73 773.521 2045.19 773.521 1989C773.521 1932.81 728.013 1887.27 671.877 1887.27C615.74 1887.27 570.233 1932.81 570.233 1989C570.233 2045.19 615.74 2090.73 671.877 2090.73Z" fill="#343434"/>
<path d="M256.726 1881.14C256.726 1882.36 255.5 1884.81 255.5 1886.04C255.5 1897.07 264.072 1906.88 276.319 1906.88H448.993C457.565 1906.88 463.688 1901.97 467.363 1894.62C502.88 1816.17 581.257 1763.47 670.651 1763.47C794.339 1763.47 894.76 1863.98 894.76 1987.77C894.76 2111.57 794.339 2212.08 670.651 2212.08C580.027 2212.08 502.877 2158.15 467.363 2082.15C463.688 2073.57 457.565 2068.67 448.99 2068.67H276.325C265.301 2068.67 255.503 2077.25 255.503 2089.51C255.503 2090.73 255.503 2093.18 256.729 2094.41C304.49 2280.72 472.264 2418 671.88 2418C908.236 2418 1100.5 2225.56 1100.5 1989C1100.5 1752.44 908.23 1560 671.877 1560C472.264 1560 304.486 1697.28 256.726 1881.14Z" fill="#343434"/>
</g>
<g clip-path="url(#clip4_66_4)">
<circle cx="1932" cy="1979.5" r="511.5" fill="url(#paint6_linear_66_4)"/>
<g clip-path="url(#clip5_66_4)">
<path d="M1999.79 1890.42H2084.02V1976.5H2126.6C2146.27 1976.5 2166.5 1973 2185.13 1966.69C2194.28 1963.59 2204.55 1959.27 2213.58 1953.84C2201.69 1938.32 2195.62 1918.72 2193.83 1899.41C2191.4 1873.13 2196.7 1838.93 2214.49 1818.37L2223.35 1808.13L2233.9 1816.61C2260.46 1837.95 2282.8 1867.76 2286.74 1901.75C2318.72 1892.34 2356.28 1894.57 2384.47 1910.84L2396.04 1917.51L2389.95 1929.39C2366.1 1975.91 2316.26 1990.33 2267.52 1987.78C2194.6 2169.37 2035.83 2255.34 1843.33 2255.34C1743.88 2255.34 1652.63 2218.17 1600.67 2129.95C1597.62 2124.47 1595.01 2118.74 1592.25 2113.11C1574.68 2074.28 1568.85 2031.74 1572.81 1989.24L1573.99 1976.51H1646.02V1890.42H1730.25V1806.21H1898.71V1722H1999.79L1999.79 1890.42Z" fill="#394D54"/>
<mask id="mask2_66_4" style="mask-type:luminance" maskUnits="userSpaceOnUse" x="1585" y="1729" width="793" height="513">
<path d="M1736.45 1729.37V1898.77H1655.41V1983.48H1587.57C1587.28 1985.93 1587.04 1988.38 1586.81 1990.84C1582.57 2036.99 1590.63 2079.55 1609.14 2115.94L1615.36 2127.1C1619.08 2133.79 1623.43 2140.08 1628.02 2146.21C1632.6 2152.33 1634.23 2155.72 1637.11 2159.79C1686.06 2214.79 1759.03 2241.27 1843.28 2241.27C2029.85 2241.27 2188.19 2158.63 2258.26 1973C2307.98 1978.1 2355.67 1965.36 2377.4 1922.94C2342.78 1902.97 2298.28 1909.37 2272.65 1922.25L2340.57 1729.37L2075.35 1898.77H1990.62V1729.37H1736.45Z" fill="white"/>
</mask>
<g mask="url(#mask2_66_4)">
<path d="M1912.75 1736.03H1985.75V1809.02H1912.75V1736.03Z" fill="#20C2EF"/>
<path d="M1921.71 1802.94V1742.11ZM1932.66 1802.94V1742.11ZM1943.72 1802.94V1742.11ZM1954.78 1802.94V1742.11ZM1965.84 1802.94V1742.11ZM1976.79 1802.94V1742.11Z" fill="black"/>
<path d="M1921.71 1802.94V1742.11M1932.66 1802.94V1742.11M1943.72 1802.94V1742.11M1954.78 1802.94V1742.11M1965.84 1802.94V1742.11M1976.79 1802.94V1742.11" stroke="#394D54" stroke-width="1.56"/>
<path d="M1996.98 1809.01H2069.98V1736.03H1996.98V1809.01Z" fill="#00ACD3"/>
<path d="M2005.94 1742.11V1802.94ZM2016.89 1742.11V1802.94ZM2027.95 1742.11V1802.94ZM2039.01 1742.11V1802.94ZM2050.07 1742.11V1802.94ZM2061.02 1742.11V1802.94Z" fill="black"/>
<path d="M2005.94 1742.11V1802.94M2016.89 1742.11V1802.94M2027.95 1742.11V1802.94M2039.01 1742.11V1802.94M2050.07 1742.11V1802.94M2061.02 1742.11V1802.94" stroke="#394D54" stroke-width="1.56"/>
<path d="M1575.83 1820.25H1648.83V1893.23H1575.83V1820.25Z" fill="#00ACD3"/>
<path d="M1575.83 1904.45H1648.83V1977.44H1575.83V1904.45Z" fill="#20C2EF"/>
<path d="M1584.79 1887.15V1826.32ZM1595.74 1887.15V1826.32ZM1606.8 1887.15V1826.32ZM1617.86 1887.15V1826.32ZM1628.92 1887.15V1826.32ZM1639.87 1887.15V1826.32Z" fill="black"/>
<path d="M1584.79 1887.15V1826.32M1595.74 1887.15V1826.32M1606.8 1887.15V1826.32M1617.86 1887.15V1826.32M1628.92 1887.15V1826.32M1639.87 1887.15V1826.32" stroke="#394D54" stroke-width="1.56"/>
<path d="M1584.79 1971.36V1910.53ZM1595.74 1971.36V1910.53ZM1606.8 1971.36V1910.53ZM1617.86 1971.36V1910.53ZM1628.92 1971.36V1910.53ZM1639.87 1971.36V1910.53Z" fill="black"/>
<path d="M1584.79 1971.36V1910.53M1595.74 1971.36V1910.53M1606.8 1971.36V1910.53M1617.86 1971.36V1910.53M1628.92 1971.36V1910.53M1639.87 1971.36V1910.53" stroke="#394D54" stroke-width="1.56"/>
<path d="M1660.06 1977.43H1733.06V1904.45H1660.06V1977.43Z" fill="#00ACD3"/>
<path d="M1660.06 1893.23H1733.06V1820.24H1660.06V1893.23Z" fill="#20C2EF"/>
<path d="M1669.02 1910.53V1971.36ZM1679.97 1910.53V1971.36ZM1691.03 1910.53V1971.36ZM1702.09 1910.53V1971.36ZM1713.15 1910.53V1971.36ZM1724.1 1910.53V1971.36Z" fill="black"/>
<path d="M1669.02 1910.53V1971.36M1679.97 1910.53V1971.36M1691.03 1910.53V1971.36M1702.09 1910.53V1971.36M1713.15 1910.53V1971.36M1724.1 1910.53V1971.36" stroke="#394D54" stroke-width="1.56"/>
<path d="M1669.02 1826.32V1887.15ZM1679.97 1826.32V1887.15ZM1691.03 1826.32V1887.15ZM1702.09 1826.32V1887.15ZM1713.15 1826.32V1887.15ZM1724.1 1826.32V1887.15Z" fill="black"/>
<path d="M1669.02 1826.32V1887.15M1679.97 1826.32V1887.15M1691.03 1826.32V1887.15M1702.09 1826.32V1887.15M1713.15 1826.32V1887.15M1724.1 1826.32V1887.15" stroke="#394D54" stroke-width="1.56"/>
<path d="M1744.29 1820.25H1817.29V1893.23H1744.29V1820.25Z" fill="#00ACD3"/>
<path d="M1744.29 1904.45H1817.29V1977.44H1744.29V1904.45Z" fill="#20C2EF"/>
<path d="M1753.25 1887.15V1826.32ZM1764.2 1887.15V1826.32ZM1775.26 1887.15V1826.32ZM1786.32 1887.15V1826.32ZM1797.38 1887.15V1826.32ZM1808.33 1887.15V1826.32Z" fill="black"/>
<path d="M1753.25 1887.15V1826.32M1764.2 1887.15V1826.32M1775.26 1887.15V1826.32M1786.32 1887.15V1826.32M1797.38 1887.15V1826.32M1808.33 1887.15V1826.32" stroke="#394D54" stroke-width="1.56"/>
<path d="M1753.25 1971.36V1910.53ZM1764.2 1971.36V1910.53ZM1775.26 1971.36V1910.53ZM1786.32 1971.36V1910.53ZM1797.38 1971.36V1910.53ZM1808.33 1971.36V1910.53Z" fill="black"/>
<path d="M1753.25 1971.36V1910.53M1764.2 1971.36V1910.53M1775.26 1971.36V1910.53M1786.32 1971.36V1910.53M1797.38 1971.36V1910.53M1808.33 1971.36V1910.53" stroke="#394D54" stroke-width="1.56"/>
<path d="M1828.52 1977.43H1901.52V1904.45H1828.52V1977.43Z" fill="#00ACD3"/>
<path d="M1828.52 1893.23H1901.52V1820.24H1828.52V1893.23Z" fill="#20C2EF"/>
<path d="M1837.48 1910.53V1971.36ZM1848.43 1910.53V1971.36ZM1859.49 1910.53V1971.36ZM1870.55 1910.53V1971.36ZM1881.61 1910.53V1971.36ZM1892.56 1910.53V1971.36Z" fill="black"/>
<path d="M1837.48 1910.53V1971.36M1848.43 1910.53V1971.36M1859.49 1910.53V1971.36M1870.55 1910.53V1971.36M1881.61 1910.53V1971.36M1892.56 1910.53V1971.36" stroke="#394D54" stroke-width="1.56"/>
<path d="M1837.48 1826.32V1887.15ZM1848.43 1826.32V1887.15ZM1859.49 1826.32V1887.15ZM1870.55 1826.32V1887.15ZM1881.61 1826.32V1887.15ZM1892.56 1826.32V1887.15Z" fill="black"/>
<path d="M1837.48 1826.32V1887.15M1848.43 1826.32V1887.15M1859.49 1826.32V1887.15M1870.55 1826.32V1887.15M1881.61 1826.32V1887.15M1892.56 1826.32V1887.15" stroke="#394D54" stroke-width="1.56"/>
<path d="M1912.75 1820.25H1985.75V1893.23H1912.75V1820.25Z" fill="#00ACD3"/>
<path d="M1912.75 1904.45H1985.75V1977.44H1912.75V1904.45Z" fill="#20C2EF"/>
<path d="M1921.71 1887.15V1826.32ZM1932.66 1887.15V1826.32ZM1943.72 1887.15V1826.32ZM1954.78 1887.15V1826.32ZM1965.84 1887.15V1826.32ZM1976.79 1887.15V1826.32Z" fill="black"/>
<path d="M1921.71 1887.15V1826.32M1932.66 1887.15V1826.32M1943.72 1887.15V1826.32M1954.78 1887.15V1826.32M1965.84 1887.15V1826.32M1976.79 1887.15V1826.32" stroke="#394D54" stroke-width="1.56"/>
<path d="M1921.71 1971.36V1910.53ZM1932.66 1971.36V1910.53ZM1943.72 1971.36V1910.53ZM1954.78 1971.36V1910.53ZM1965.84 1971.36V1910.53ZM1976.79 1971.36V1910.53Z" fill="black"/>
<path d="M1921.71 1971.36V1910.53M1932.66 1971.36V1910.53M1943.72 1971.36V1910.53M1954.78 1971.36V1910.53M1965.84 1971.36V1910.53M1976.79 1971.36V1910.53" stroke="#394D54" stroke-width="1.56"/>
<path d="M1996.98 1977.43H2069.98V1904.45H1996.98V1977.43Z" fill="#00ACD3"/>
<path d="M1996.98 1893.23H2069.98V1820.24H1996.98V1893.23Z" fill="#20C2EF"/>
<path d="M2005.94 1910.53V1971.36ZM2016.89 1910.53V1971.36ZM2027.95 1910.53V1971.36ZM2039.01 1910.53V1971.36ZM2050.07 1910.53V1971.36ZM2061.02 1910.53V1971.36Z" fill="black"/>
<path d="M2005.94 1910.53V1971.36M2016.89 1910.53V1971.36M2027.95 1910.53V1971.36M2039.01 1910.53V1971.36M2050.07 1910.53V1971.36M2061.02 1910.53V1971.36" stroke="#394D54" stroke-width="1.56"/>
<path d="M2005.94 1826.32V1887.15ZM2016.89 1826.32V1887.15ZM2027.95 1826.32V1887.15ZM2039.01 1826.32V1887.15ZM2050.07 1826.32V1887.15ZM2061.02 1826.32V1887.15Z" fill="black"/>
<path d="M2005.94 1826.32V1887.15M2016.89 1826.32V1887.15M2027.95 1826.32V1887.15M2039.01 1826.32V1887.15M2050.07 1826.32V1887.15M2061.02 1826.32V1887.15" stroke="#394D54" stroke-width="1.56"/>
</g>
<mask id="mask3_66_4" style="mask-type:luminance" maskUnits="userSpaceOnUse" x="1585" y="1729" width="793" height="513">
<path d="M1736.45 1729.37V1898.77H1655.41V1983.48H1587.57C1587.28 1985.93 1587.04 1988.38 1586.81 1990.84C1582.57 2036.99 1590.63 2079.55 1609.14 2115.94L1615.36 2127.1C1619.08 2133.79 1623.43 2140.08 1628.02 2146.21C1632.6 2152.33 1634.23 2155.72 1637.11 2159.79C1686.06 2214.79 1759.03 2241.27 1843.28 2241.27C2029.85 2241.27 2188.19 2158.63 2258.26 1973C2307.98 1978.1 2355.67 1965.36 2377.4 1922.94C2342.78 1902.97 2298.28 1909.37 2272.65 1922.25L2340.57 1729.37L2075.35 1898.77H1990.62V1729.37H1736.45Z" fill="white"/>
</mask>
<g mask="url(#mask3_66_4)">
<path d="M2272.68 1922.27C2278.33 1878.39 2245.48 1843.92 2225.11 1827.55C2201.63 1854.69 2197.98 1925.8 2234.81 1955.74C2214.26 1973.99 2170.95 1990.54 2126.6 1990.54H1581.74C1577.43 2036.82 1581.74 2259.68 1581.74 2259.68H2381.08L2377.45 1922.99C2342.83 1903.02 2298.31 1909.39 2272.68 1922.27Z" fill="#17B5EB"/>
</g>
<mask id="mask4_66_4" style="mask-type:luminance" maskUnits="userSpaceOnUse" x="1585" y="1729" width="793" height="513">
<path d="M1736.45 1729.37V1898.77H1655.41V1983.48H1587.57C1587.28 1985.93 1587.04 1988.38 1586.81 1990.84C1582.57 2036.99 1590.63 2079.55 1609.14 2115.94L1615.36 2127.1C1619.08 2133.79 1623.43 2140.08 1628.02 2146.21C1632.6 2152.33 1634.23 2155.72 1637.11 2159.79C1686.06 2214.79 1759.03 2241.27 1843.28 2241.27C2029.85 2241.27 2188.19 2158.63 2258.26 1973C2307.98 1978.1 2355.67 1965.36 2377.4 1922.94C2342.78 1902.97 2298.28 1909.37 2272.65 1922.25L2340.57 1729.37L2075.35 1898.77H1990.62V1729.37H1736.45Z" fill="white"/>
</mask>
<g mask="url(#mask4_66_4)">
<path d="M1581.74 2049.77V2259.68H2381.08V2049.77" fill="black" fill-opacity="0.17"/>
</g>
<mask id="mask5_66_4" style="mask-type:luminance" maskUnits="userSpaceOnUse" x="1585" y="1729" width="793" height="513">
<path d="M1736.45 1729.37V1898.77H1655.41V1983.48H1587.57C1587.28 1985.93 1587.04 1988.38 1586.81 1990.84C1582.57 2036.99 1590.63 2079.55 1609.14 2115.94L1615.36 2127.1C1619.08 2133.79 1623.43 2140.08 1628.02 2146.21C1632.6 2152.33 1634.23 2155.72 1637.11 2159.79C1686.06 2214.79 1759.03 2241.27 1843.28 2241.27C2029.85 2241.27 2188.19 2158.63 2258.26 1973C2307.98 1978.1 2355.67 1965.36 2377.4 1922.94C2342.78 1902.97 2298.28 1909.37 2272.65 1922.25L2340.57 1729.37L2075.35 1898.77H1990.62V1729.37H1736.45Z" fill="white"/>
</mask>
<g mask="url(#mask5_66_4)">
<path d="M1866.25 2240.86C1816.38 2217.2 1789 2185.04 1773.77 2149.92L1622.26 2156.57L1699.62 2259.68L1866.25 2240.86Z" fill="#D4EDF1"/>
</g>
<mask id="mask6_66_4" style="mask-type:luminance" maskUnits="userSpaceOnUse" x="1585" y="1729" width="793" height="513">
<path d="M1736.45 1729.37V1898.77H1655.41V1983.48H1587.57C1587.28 1985.93 1587.04 1988.38 1586.81 1990.84C1582.57 2036.99 1590.63 2079.55 1609.14 2115.94L1615.36 2127.1C1619.08 2133.79 1623.43 2140.08 1628.02 2146.21C1632.6 2152.33 1634.23 2155.72 1637.11 2159.79C1686.06 2214.79 1759.03 2241.27 1843.28 2241.27C2029.85 2241.27 2188.19 2158.63 2258.26 1973C2307.98 1978.1 2355.67 1965.36 2377.4 1922.94C2342.78 1902.97 2298.28 1909.37 2272.65 1922.25L2340.57 1729.37L2075.35 1898.77H1990.62V1729.37H1736.45Z" fill="white"/>
</mask>
<g mask="url(#mask6_66_4)">
<path d="M2276.1 1920.64V1920.75C2199.26 2019.78 2089.04 2106.29 1970.71 2151.73C1865.16 2192.27 1773.13 2192.46 1709.63 2159.9C1702.8 2156.04 1696.09 2151.76 1689.37 2147.7C1642.82 2115.18 1616.6 2061.37 1618.81 1990.5H1581.74V2259.68H2381.08V1906.14H2288.99L2276.1 1920.64Z" fill="black" fill-opacity="0.085"/>
</g>
<path d="M1624.56 2153C1676.74 2155.85 1732.43 2156.36 1781 2141.14" stroke="#394D54" stroke-width="3.4" stroke-linecap="round"/>
<path d="M1832.86 2115.91C1832.86 2127.02 1823.84 2136.04 1812.72 2136.04C1801.6 2136.04 1792.58 2127.02 1792.58 2115.91C1792.58 2104.79 1801.6 2095.77 1812.72 2095.77C1823.84 2095.77 1832.86 2104.79 1832.86 2115.91Z" fill="#D4EDF1"/>
<path d="M1817.94 2102.46C1816.18 2103.47 1814.99 2105.38 1814.99 2107.55C1814.99 2110.8 1817.63 2113.44 1820.88 2113.44C1823.11 2113.44 1825.04 2112.2 1826.04 2110.37C1826.75 2112.07 1827.14 2113.94 1827.14 2115.91C1827.14 2123.87 1820.68 2130.32 1812.72 2130.32C1804.75 2130.32 1798.29 2123.87 1798.29 2115.91C1798.29 2107.94 1804.75 2101.48 1812.72 2101.48C1814.56 2101.48 1816.32 2101.83 1817.94 2102.46Z" fill="#394D54"/>
<path d="M1456.5 2054.05H2393.34C2372.94 2048.87 2328.8 2041.88 2336.08 2015.16C2298.99 2058.07 2209.54 2045.26 2186.96 2024.1C2161.82 2060.55 2015.48 2046.7 2005.27 2018.3C1973.75 2055.28 1876.1 2055.28 1844.58 2018.3C1834.37 2046.7 1688.02 2060.55 1662.88 2024.1C1640.3 2045.26 1550.86 2058.07 1513.76 2015.16C1521.04 2041.88 1476.9 2048.87 1456.5 2054.05Z" fill="#394D54"/>
</g>
</g>
<circle cx="3190" cy="1979.5" r="511.5" fill="url(#paint7_linear_66_4)"/>
<path d="M2988.37 1921.24C2988.37 1931.51 2989.48 1939.83 2991.43 1945.94C2993.65 1952.04 2996.42 1958.7 3000.31 1965.91C3001.7 1968.13 3002.26 1970.35 3002.26 1972.3C3002.26 1975.07 3000.59 1977.85 2996.98 1980.62L2979.49 1992.27C2976.99 1993.94 2974.49 1994.77 2972.27 1994.77C2969.49 1994.77 2966.72 1993.38 2963.94 1990.89C2960.06 1986.72 2956.72 1982.29 2953.95 1977.85C2951.17 1973.13 2948.39 1967.86 2945.34 1961.47C2923.69 1987 2896.48 1999.77 2863.72 1999.77C2840.4 1999.77 2821.79 1993.11 2808.19 1979.79C2794.59 1966.47 2787.65 1948.71 2787.65 1926.51C2787.65 1902.93 2795.97 1883.78 2812.91 1869.35C2829.85 1854.93 2852.33 1847.71 2880.93 1847.71C2890.37 1847.71 2900.09 1848.54 2910.36 1849.93C2920.63 1851.32 2931.18 1853.54 2942.29 1856.04V1835.78C2942.29 1814.69 2937.84 1799.99 2929.24 1791.38C2920.35 1782.78 2905.36 1778.62 2883.98 1778.62C2874.27 1778.62 2864.27 1779.73 2854 1782.23C2843.73 1784.72 2833.73 1787.78 2824.02 1791.66C2819.57 1793.6 2816.24 1794.71 2814.3 1795.27C2812.36 1795.82 2810.97 1796.1 2809.86 1796.1C2805.97 1796.1 2804.03 1793.33 2804.03 1787.5V1773.9C2804.03 1769.46 2804.58 1766.13 2805.97 1764.19C2807.36 1762.25 2809.86 1760.31 2813.74 1758.36C2823.46 1753.37 2835.12 1749.21 2848.72 1745.88C2862.33 1742.27 2876.77 1740.61 2892.04 1740.61C2925.07 1740.61 2949.23 1748.1 2964.77 1763.08C2980.04 1778.07 2987.82 1800.82 2987.82 1831.34V1921.24H2988.37ZM2875.66 1963.42C2884.82 1963.42 2894.26 1961.75 2904.25 1958.42C2914.25 1955.09 2923.13 1948.99 2930.63 1940.66C2935.07 1935.39 2938.4 1929.57 2940.07 1922.91C2941.73 1916.25 2942.84 1908.2 2942.84 1898.77V1887.11C2934.79 1885.17 2926.18 1883.51 2917.3 1882.4C2908.42 1881.29 2899.81 1880.73 2891.2 1880.73C2872.6 1880.73 2859 1884.34 2849.84 1891.83C2840.67 1899.32 2836.23 1909.86 2836.23 1923.74C2836.23 1936.78 2839.56 1946.49 2846.5 1953.15C2853.17 1960.09 2862.88 1963.42 2875.66 1963.42ZM3098.59 1993.38C3093.6 1993.38 3090.26 1992.55 3088.04 1990.61C3085.82 1988.94 3083.88 1985.06 3082.21 1979.79L3016.97 1765.3C3015.3 1759.75 3014.47 1756.15 3014.47 1754.2C3014.47 1749.76 3016.69 1747.27 3021.13 1747.27H3048.34C3053.62 1747.27 3057.23 1748.1 3059.17 1750.04C3061.39 1751.71 3063.06 1755.59 3064.72 1760.86L3111.36 1944.55L3154.67 1760.86C3156.06 1755.31 3157.73 1751.71 3159.95 1750.04C3162.17 1748.38 3166.06 1747.27 3171.06 1747.27H3193.27C3198.54 1747.27 3202.15 1748.1 3204.37 1750.04C3206.59 1751.71 3208.54 1755.59 3209.65 1760.86L3253.51 1946.77L3301.54 1760.86C3303.21 1755.31 3305.15 1751.71 3307.09 1750.04C3309.32 1748.38 3312.92 1747.27 3317.92 1747.27H3343.74C3348.18 1747.27 3350.68 1749.49 3350.68 1754.2C3350.68 1755.59 3350.41 1756.98 3350.13 1758.64C3349.85 1760.31 3349.29 1762.53 3348.18 1765.58L3281.27 1980.07C3279.61 1985.61 3277.67 1989.22 3275.44 1990.89C3273.22 1992.55 3269.61 1993.66 3264.89 1993.66H3241.02C3235.74 1993.66 3232.13 1992.83 3229.91 1990.89C3227.69 1988.94 3225.75 1985.34 3224.64 1979.79L3181.61 1800.82L3138.85 1979.51C3137.46 1985.06 3135.8 1988.67 3133.57 1990.61C3131.35 1992.55 3127.47 1993.38 3122.47 1993.38H3098.59ZM3455.35 2000.88C3440.91 2000.88 3426.48 1999.21 3412.59 1995.88C3398.71 1992.55 3387.89 1988.94 3380.67 1984.78C3376.22 1982.29 3373.17 1979.51 3372.06 1977.01C3370.95 1974.52 3370.39 1971.74 3370.39 1969.24V1955.09C3370.39 1949.27 3372.62 1946.49 3376.78 1946.49C3378.45 1946.49 3380.11 1946.77 3381.78 1947.32C3383.44 1947.88 3385.94 1948.99 3388.72 1950.1C3398.16 1954.26 3408.43 1957.59 3419.26 1959.81C3430.36 1962.03 3441.19 1963.14 3452.3 1963.14C3469.79 1963.14 3483.39 1960.09 3492.83 1953.98C3502.27 1947.88 3507.27 1939 3507.27 1927.62C3507.27 1919.85 3504.77 1913.47 3499.77 1908.2C3494.77 1902.93 3485.33 1898.21 3471.73 1893.77L3431.47 1881.29C3411.21 1874.9 3396.21 1865.47 3387.05 1852.98C3377.89 1840.77 3373.17 1827.18 3373.17 1812.75C3373.17 1801.1 3375.67 1790.83 3380.67 1781.95C3385.66 1773.07 3392.33 1765.3 3400.66 1759.2C3408.99 1752.82 3418.42 1748.1 3429.53 1744.77C3440.64 1741.44 3452.3 1740.05 3464.51 1740.05C3470.62 1740.05 3477.01 1740.33 3483.11 1741.16C3489.5 1741.99 3495.33 1743.1 3501.16 1744.21C3506.71 1745.6 3511.99 1746.99 3516.98 1748.65C3521.98 1750.32 3525.87 1751.98 3528.64 1753.65C3532.53 1755.87 3535.31 1758.09 3536.97 1760.58C3538.64 1762.8 3539.47 1765.86 3539.47 1769.74V1782.78C3539.47 1788.61 3537.25 1791.66 3533.09 1791.66C3530.87 1791.66 3527.26 1790.55 3522.54 1788.33C3506.71 1781.12 3488.94 1777.51 3469.23 1777.51C3453.41 1777.51 3440.91 1780.01 3432.31 1785.28C3423.7 1790.55 3419.26 1798.6 3419.26 1809.97C3419.26 1817.74 3422.03 1824.4 3427.59 1829.68C3433.14 1834.95 3443.41 1840.22 3458.13 1844.94L3497.55 1857.42C3517.54 1863.8 3531.98 1872.68 3540.58 1884.06C3549.19 1895.44 3553.35 1908.48 3553.35 1922.91C3553.35 1934.84 3550.86 1945.66 3546.14 1955.09C3541.14 1964.53 3534.47 1972.85 3525.87 1979.51C3517.26 1986.45 3506.99 1991.44 3495.05 1995.05C3482.56 1998.93 3469.51 2000.88 3455.35 2000.88Z" fill="#252F3E"/>
<path fill-rule="evenodd" clip-rule="evenodd" d="M3507.82 2135.73C3416.48 2203.15 3283.77 2238.95 3169.67 2238.95C3009.75 2238.95 2865.66 2179.85 2756.83 2081.62C2748.22 2073.85 2756 2063.31 2766.27 2069.41C2883.98 2137.67 3029.19 2179.01 3179.38 2179.01C3280.72 2179.01 3392.05 2157.93 3494.5 2114.64C3509.77 2107.7 3522.81 2124.63 3507.82 2135.73Z" fill="#FF9900"/>
<path fill-rule="evenodd" clip-rule="evenodd" d="M3545.86 2092.44C3534.2 2077.46 3468.68 2085.23 3438.97 2088.83C3430.09 2089.94 3428.7 2082.18 3436.75 2076.35C3488.94 2039.72 3574.73 2050.27 3584.73 2062.48C3594.72 2074.96 3581.95 2160.7 3533.09 2201.77C3525.59 2208.15 3518.37 2204.82 3521.7 2196.49C3532.81 2169.02 3557.52 2107.15 3545.86 2092.44Z" fill="#FF9900"/>
<circle cx="4452" cy="1979.5" r="511.5" fill="url(#paint8_linear_66_4)"/>
<path d="M4623.49 2170.01C4628.54 2127.94 4627.02 2121.77 4658.35 2128.58L4666.31 2129.28C4690.39 2130.38 4721.91 2125.41 4740.42 2116.8C4780.27 2098.3 4803.9 2067.42 4764.61 2075.54C4674.97 2094.03 4668.81 2063.67 4668.81 2063.67C4763.46 1923.19 4803.02 1744.85 4768.87 1701.2C4675.72 1582.13 4514.48 1638.44 4511.78 1639.9L4510.92 1640.06C4493.21 1636.38 4473.39 1634.19 4451.12 1633.83C4410.56 1633.16 4379.78 1644.46 4356.44 1662.18C4356.44 1662.18 4068.79 1543.63 4082.17 1811.27C4085.02 1868.2 4163.75 2242.07 4257.65 2129.15C4291.98 2087.85 4325.14 2052.94 4325.14 2052.94C4341.62 2063.88 4361.33 2069.47 4382.02 2067.46L4383.61 2066.1C4383.11 2071.22 4383.33 2076.24 4384.25 2082.18C4360.07 2109.21 4367.17 2113.96 4318.81 2123.92C4269.88 2134.01 4298.63 2151.97 4317.39 2156.66C4340.14 2162.36 4392.78 2170.42 4428.36 2120.61L4426.94 2126.29C4436.43 2133.89 4435.79 2180.88 4437.13 2214.45C4438.48 2248.03 4440.73 2279.36 4447.57 2297.83C4454.41 2316.3 4462.49 2363.88 4526.05 2350.26C4579.17 2338.87 4619.79 2322.48 4623.49 2170.01Z" fill="black" stroke="black" stroke-width="49.8604"/>
<path d="M4764.61 2075.53C4674.97 2094.03 4668.81 2063.67 4668.81 2063.67C4763.46 1923.17 4803.02 1744.84 4768.88 1701.19C4675.73 1582.13 4514.48 1638.44 4511.79 1639.9L4510.92 1640.06C4493.21 1636.38 4473.39 1634.19 4451.11 1633.82C4410.55 1633.16 4379.78 1644.46 4356.44 1662.17C4356.44 1662.17 4068.78 1543.63 4082.16 1811.26C4085.01 1868.2 4163.74 2242.07 4257.65 2129.15C4291.97 2087.85 4325.13 2052.94 4325.13 2052.94C4341.61 2063.88 4361.33 2069.47 4382 2067.46L4383.6 2066.1C4383.1 2071.22 4383.33 2076.24 4384.25 2082.18C4360.05 2109.21 4367.16 2113.96 4318.8 2123.92C4269.87 2134.01 4298.61 2151.97 4317.38 2156.66C4340.14 2162.36 4392.78 2170.42 4428.35 2120.61L4426.93 2126.29C4436.41 2133.89 4443.07 2175.69 4441.95 2213.59C4440.83 2251.49 4440.09 2277.51 4447.56 2297.83C4455.03 2318.16 4462.47 2363.88 4526.05 2350.26C4579.17 2338.87 4606.7 2309.36 4610.53 2260.13C4613.25 2225.13 4619.4 2230.31 4619.78 2199.02L4624.72 2184.2C4630.41 2136.76 4625.62 2121.46 4658.35 2128.58L4666.3 2129.28C4690.39 2130.37 4721.92 2125.4 4740.42 2116.8C4780.27 2098.3 4803.9 2067.42 4764.61 2075.53H4764.61Z" fill="#336791"/>
<path d="M4432.2 2102.73C4429.73 2191 4432.82 2279.89 4441.45 2301.49C4450.09 2323.09 4468.58 2365.11 4532.16 2351.49C4585.28 2340.1 4604.61 2318.05 4612.99 2269.39C4619.17 2233.59 4631.08 2134.16 4632.61 2113.79" stroke="white" stroke-width="16.6201" stroke-linecap="round" stroke-linejoin="round"/>
<path d="M4355.99 1660.2C4355.99 1660.2 4068.14 1542.51 4081.52 1810.14C4084.37 1867.08 4163.11 2240.97 4257.01 2128.03C4291.33 2086.74 4322.37 2054.35 4322.37 2054.35" stroke="white" stroke-width="16.6201" stroke-linecap="round" stroke-linejoin="round"/>
<path d="M4511.47 1638.72C4501.51 1641.85 4671.59 1576.52 4768.25 1700.08C4802.39 1743.73 4762.83 1922.06 4668.18 2062.56" stroke="white" stroke-width="16.6201" stroke-linecap="round" stroke-linejoin="round"/>
<path d="M4668.18 2062.56C4668.18 2062.56 4674.35 2092.93 4763.99 2074.42C4803.27 2066.3 4779.63 2097.19 4739.8 2115.7C4707.1 2130.88 4633.81 2134.77 4632.61 2113.79C4629.53 2059.68 4671.19 2076.12 4668.18 2062.56ZM4668.18 2062.56C4665.46 2050.35 4646.83 2038.36 4634.51 2008.47C4623.75 1982.39 4486.96 1782.34 4672.45 1812.05C4679.24 1810.64 4624.07 1635.55 4450.48 1632.71C4276.93 1629.86 4282.62 1846.21 4282.62 1846.21" stroke="white" stroke-width="16.6201" stroke-linecap="round" stroke-linejoin="bevel"/>
<path d="M4383.61 2081.07C4359.42 2108.1 4366.53 2112.85 4318.17 2122.81C4269.23 2132.9 4297.99 2150.86 4316.75 2155.55C4339.5 2161.25 4392.15 2169.31 4427.71 2119.49C4438.55 2104.32 4427.65 2080.12 4412.77 2073.95C4405.58 2070.97 4395.97 2067.23 4383.61 2081.07Z" stroke="white" stroke-width="16.6201" stroke-linecap="round" stroke-linejoin="round"/>
<path d="M4382.03 2080.59C4379.59 2064.7 4387.25 2045.78 4395.46 2023.65C4407.8 1990.44 4436.26 1957.23 4413.49 1851.9C4396.52 1773.41 4282.69 1835.57 4282.62 1846.21C4282.55 1856.85 4287.77 1900.15 4280.72 1950.59C4271.52 2016.39 4322.57 2072.05 4381.37 2066.35" stroke="white" stroke-width="16.6201" stroke-linecap="round" stroke-linejoin="round"/>
<path d="M4354.95 1844.61C4354.43 1848.25 4361.6 1857.95 4370.94 1859.24C4380.27 1860.55 4388.25 1852.97 4388.76 1849.33C4389.27 1845.7 4382.11 1841.7 4372.76 1840.39C4363.43 1839.09 4355.44 1840.99 4354.95 1844.61H4354.95Z" fill="white" stroke="white" stroke-width="5.54"/>
<path d="M4639.06 1837.2C4639.56 1840.84 4632.41 1850.54 4623.06 1851.83C4613.73 1853.14 4605.74 1845.55 4605.23 1841.92C4604.74 1838.29 4611.9 1834.28 4621.23 1832.98C4630.57 1831.68 4638.55 1833.58 4639.06 1837.2V1837.2Z" fill="white" stroke="white" stroke-width="2.77"/>
<path d="M4672.44 1812.05C4673.98 1840.56 4666.31 1859.98 4665.34 1890.33C4663.91 1934.45 4686.37 1984.95 4652.52 2035.51" stroke="white" stroke-width="16.6201" stroke-linecap="round" stroke-linejoin="round"/>
<circle cx="5708" cy="1979.5" r="511.5" fill="url(#paint9_linear_66_4)"/>
<path d="M6118.13 2030.88C6147 1804.87 5987.39 1598.24 5761.79 1569.37C5536.19 1540.5 5328.74 1700.11 5299.87 1925.71C5271 2151.31 5430.61 2358.34 5656.21 2387.63C5882.22 2416.5 6088.84 2256.89 6118.13 2030.88Z" fill="#FF6C37"/>
<path d="M5857.89 1830.85L5683.84 2004.9L5634.76 1955.82C5805.92 1784.66 5822.83 1799.51 5857.89 1830.85Z" fill="white"/>
<path d="M5683.84 2009.02C5682.6 2009.02 5681.78 2008.61 5680.96 2007.78L5631.46 1958.7C5629.81 1957.05 5629.81 1954.58 5631.46 1952.93C5805.51 1778.89 5823.65 1795.38 5860.36 1828.38C5861.19 1829.2 5861.6 1830.03 5861.6 1831.26C5861.6 1832.5 5861.19 1833.33 5860.36 1834.15L5686.32 2007.78C5685.9 2008.61 5684.67 2009.02 5683.84 2009.02ZM5640.54 1955.82L5683.84 1999.12L5851.7 1831.26C5821.18 1804.04 5800.56 1795.8 5640.54 1955.82Z" fill="#FF6C37"/>
<path d="M5733.75 2054.8L5686.32 2007.37L5860.36 1833.33C5906.96 1880.34 5837.26 1956.64 5733.75 2054.8Z" fill="white"/>
<path d="M5733.75 2058.92C5732.51 2058.92 5731.68 2058.51 5730.86 2057.69L5683.43 2010.26C5682.6 2009.43 5682.6 2008.61 5682.6 2007.37C5682.6 2006.13 5683.02 2005.31 5683.84 2004.48L5857.89 1830.44C5859.54 1828.79 5862.01 1828.79 5863.66 1830.44C5874.38 1840.34 5880.16 1854.36 5879.74 1868.8C5878.92 1914.57 5826.95 1972.73 5737.05 2057.69C5735.81 2058.51 5734.57 2058.92 5733.75 2058.92ZM5692.09 2007.37C5718.49 2034.18 5729.62 2044.9 5733.75 2049.03C5803.03 1983.04 5870.26 1915.4 5870.67 1868.8C5871.08 1858.07 5866.96 1847.35 5859.95 1839.1L5692.09 2007.37Z" fill="#FF6C37"/>
<path d="M5635.59 1957.06L5670.64 1992.11C5671.47 1992.94 5671.47 1993.76 5670.64 1994.59C5670.23 1995 5670.23 1995 5669.82 1995L5597.23 2010.67C5593.52 2011.08 5590.22 2008.61 5589.4 2004.9C5588.98 2002.83 5589.81 2000.77 5591.05 1999.53L5633.11 1957.47C5633.94 1956.64 5635.18 1956.23 5635.59 1957.06Z" fill="white"/>
<path d="M5596 2014.79C5589.81 2014.79 5585.27 2009.84 5585.27 2003.66C5585.27 2000.77 5586.51 1997.88 5588.57 1995.82L5630.64 1953.75C5633.11 1951.69 5636.41 1951.69 5638.89 1953.75L5673.94 1988.81C5676.42 1990.87 5676.42 1994.58 5673.94 1997.06C5673.12 1997.88 5672.29 1998.3 5671.06 1998.71L5598.47 2014.38C5597.65 2014.38 5596.82 2014.79 5596 2014.79ZM5634.35 1961.59L5593.93 2002.01C5593.11 2002.83 5592.7 2004.07 5593.52 2005.31C5593.93 2006.55 5595.17 2006.96 5596.41 2006.55L5664.46 1991.7L5634.35 1961.59Z" fill="#FF6C37"/>
<path d="M5949.86 1734.34C5923.46 1708.77 5880.98 1709.6 5855.41 1736.41C5829.84 1763.21 5830.67 1805.28 5857.47 1830.85C5879.33 1851.89 5912.33 1855.6 5938.31 1839.93L5891.29 1792.91L5949.86 1734.34Z" fill="white"/>
<path d="M5903.67 1853.54C5864.48 1853.54 5832.73 1821.78 5832.73 1782.6C5832.73 1743.42 5864.48 1711.66 5903.67 1711.66C5921.81 1711.66 5939.55 1718.67 5952.74 1731.46C5953.57 1732.28 5953.98 1733.11 5953.98 1734.34C5953.98 1735.58 5953.57 1736.41 5952.74 1737.23L5897.07 1792.91L5940.78 1836.63C5942.43 1838.28 5942.43 1840.75 5940.78 1842.4C5940.37 1842.81 5940.37 1842.81 5939.96 1843.22C5929.24 1849.82 5916.45 1853.54 5903.67 1853.54ZM5903.67 1720.32C5869.02 1720.32 5840.98 1748.37 5841.39 1783.01C5841.39 1817.65 5869.43 1845.7 5904.08 1845.29C5913.56 1845.29 5923.05 1843.22 5931.71 1838.69L5888.41 1795.8C5887.58 1794.97 5887.17 1794.15 5887.17 1792.91C5887.17 1791.67 5887.58 1790.85 5888.41 1790.02L5943.67 1734.76C5932.53 1725.27 5918.51 1720.32 5903.67 1720.32Z" fill="#FF6C37"/>
<path d="M5951.09 1735.58L5950.27 1734.76L5891.29 1792.91L5937.9 1839.51C5942.43 1836.63 5946.97 1833.33 5950.68 1829.61C5977.08 1803.63 5977.08 1761.56 5951.09 1735.58Z" fill="white"/>
<path d="M5938.31 1844.05C5937.07 1844.05 5936.25 1843.64 5935.42 1842.81L5888.41 1795.8C5887.58 1794.97 5887.17 1794.15 5887.17 1792.91C5887.17 1791.67 5887.58 1790.85 5888.41 1790.02L5946.97 1731.46C5948.62 1729.81 5951.09 1729.81 5952.74 1731.46L5953.98 1732.28C5981.61 1759.92 5981.61 1804.46 5954.39 1832.5C5950.27 1836.63 5945.73 1840.34 5940.78 1843.23C5939.55 1843.64 5938.72 1844.05 5938.31 1844.05ZM5897.07 1792.91L5938.72 1834.56C5942.02 1832.5 5945.32 1829.62 5947.79 1827.14C5971.3 1803.63 5972.54 1765.28 5949.86 1740.53L5897.07 1792.91Z" fill="#FF6C37"/>
<path d="M5864.9 1838.28C5855 1828.38 5838.91 1828.38 5829.02 1838.28L5673.53 1993.76L5699.51 2019.74L5864.07 1875.39C5874.8 1866.32 5875.62 1850.24 5866.55 1839.51C5865.72 1839.1 5865.31 1838.69 5864.9 1838.28Z" fill="white"/>
<path d="M5699.1 2023.87C5697.86 2023.87 5697.04 2023.45 5696.21 2022.63L5670.23 1996.65C5668.58 1995 5668.58 1992.52 5670.23 1990.87L5825.72 1835.39C5837.26 1823.84 5855.82 1823.84 5867.37 1835.39C5878.92 1846.94 5878.92 1865.5 5867.37 1877.04C5866.96 1877.46 5866.55 1877.87 5866.13 1878.28L5701.58 2022.63C5701.16 2023.45 5700.34 2023.87 5699.1 2023.87ZM5679.31 1993.76L5699.51 2013.97L5861.18 1872.09C5870.26 1864.67 5871.08 1851.06 5863.66 1841.99C5856.24 1832.91 5842.63 1832.09 5833.55 1839.51C5833.14 1839.93 5832.73 1840.34 5831.9 1840.75L5679.31 1993.76Z" fill="#FF6C37"/>
<path d="M5554.34 2170.69C5552.69 2171.52 5551.87 2173.17 5552.28 2174.82L5559.29 2204.51C5560.94 2208.63 5558.46 2213.58 5553.93 2214.82C5550.63 2216.06 5546.92 2214.82 5544.85 2212.35L5499.49 2167.39L5647.55 2019.33L5698.69 2020.16L5733.33 2054.8C5725.08 2061.81 5675.18 2110.06 5554.34 2170.69Z" fill="white"/>
<path d="M5551.04 2218.94C5547.74 2218.94 5544.44 2217.71 5542.38 2215.23L5497.43 2170.28C5496.6 2169.45 5496.19 2168.63 5496.19 2167.39C5496.19 2166.15 5496.6 2165.33 5497.43 2164.5L5645.49 2016.44C5646.31 2015.62 5647.55 2015.21 5648.37 2015.21L5699.51 2016.03C5700.75 2016.03 5701.58 2016.44 5702.4 2017.27L5737.05 2051.91C5737.87 2052.74 5738.28 2053.97 5738.28 2055.21C5738.28 2056.45 5737.87 2057.27 5736.63 2058.1L5733.75 2060.57C5690.03 2098.93 5630.64 2137.28 5556.82 2173.99L5563.83 2203.27C5565.06 2208.63 5562.59 2214.41 5557.64 2217.29C5555.17 2218.53 5553.1 2218.94 5551.04 2218.94ZM5505.67 2167.39L5548.15 2209.46C5549.39 2211.52 5551.87 2212.35 5553.93 2211.11C5555.99 2209.87 5556.82 2207.4 5555.58 2205.33L5548.57 2175.64C5547.74 2171.93 5549.39 2168.63 5552.69 2166.98C5625.69 2130.27 5684.67 2092.33 5727.97 2054.8L5697.45 2024.28L5650.02 2023.45L5505.67 2167.39Z" fill="#FF6C37"/>
<path d="M5464.43 2202.86L5499.9 2167.39L5552.69 2220.18L5468.56 2214.41C5464.84 2213.99 5462.37 2210.7 5462.78 2206.98C5462.78 2205.33 5463.19 2203.68 5464.43 2202.86Z" fill="white"/>
<path d="M5552.69 2223.89L5468.14 2218.12C5461.96 2217.71 5457.83 2212.35 5458.25 2206.16C5458.66 2203.69 5459.48 2201.21 5461.54 2199.56L5497.01 2164.09C5498.66 2162.44 5501.14 2162.44 5502.79 2164.09L5555.58 2216.88C5556.81 2218.12 5557.23 2219.77 5556.4 2221.42C5555.58 2223.07 5554.34 2223.89 5552.69 2223.89ZM5499.9 2173.17L5467.32 2205.75C5466.08 2206.57 5466.08 2208.63 5467.32 2209.46C5467.73 2209.87 5468.14 2210.28 5468.97 2210.28L5541.97 2215.23L5499.9 2173.17Z" fill="#FF6C37"/>
<path d="M5633.11 2038.3C5630.64 2038.3 5628.99 2036.24 5628.99 2034.18C5628.99 2032.94 5629.4 2032.12 5630.23 2031.29L5670.23 1991.29C5671.88 1989.64 5674.36 1989.64 5676.01 1991.29L5701.99 2017.27C5703.23 2018.51 5703.64 2019.74 5703.23 2021.39C5702.81 2022.63 5701.58 2023.87 5699.93 2024.28L5633.94 2038.3C5633.53 2038.3 5633.11 2038.3 5633.11 2038.3ZM5673.12 1999.95L5645.9 2027.17L5690.44 2017.68L5673.12 1999.95Z" fill="#FF6C37"/>
<path d="M5698.69 2020.16L5653.32 2030.05C5650.02 2030.88 5646.72 2028.82 5645.9 2025.52C5645.49 2023.45 5645.9 2021.39 5647.55 2019.74L5672.71 1994.58L5698.69 2020.16Z" fill="white"/>
<path d="M5652.5 2034.18C5646.72 2034.18 5642.19 2029.64 5642.19 2023.87C5642.19 2020.98 5643.42 2018.51 5645.07 2016.44L5670.23 1991.29C5671.88 1989.64 5674.36 1989.64 5676.01 1991.29L5701.99 2017.27C5703.23 2018.51 5703.64 2019.74 5703.23 2021.39C5702.81 2022.63 5701.58 2023.87 5699.93 2024.28L5654.56 2034.18C5653.73 2034.18 5652.91 2034.18 5652.5 2034.18ZM5673.12 1999.95L5650.85 2022.22C5650.02 2023.04 5650.02 2023.87 5650.44 2024.69C5650.85 2025.52 5651.67 2025.93 5652.91 2025.93L5690.85 2017.68L5673.12 1999.95Z" fill="#FF6C37"/>
<path d="M5951.51 1775.17C5950.68 1772.7 5947.79 1771.46 5945.32 1772.29C5942.85 1773.11 5941.61 1776 5942.43 1778.47C5942.43 1778.89 5942.85 1779.3 5942.85 1779.71C5945.32 1784.66 5944.5 1790.85 5941.2 1795.38C5939.55 1797.45 5939.96 1800.33 5941.61 1801.98C5943.67 1803.63 5946.56 1803.22 5948.21 1801.16C5954.39 1793.32 5955.63 1783.42 5951.51 1775.17Z" fill="#FF6C37"/>
<circle cx="4452" cy="719.5" r="511.5" fill="url(#paint10_linear_66_4)"/>
<g clip-path="url(#clip6_66_4)">
<path d="M4637.77 868.18H4729.64V647.592L4626.14 544.088L4561.18 609.051L4637.77 685.65V868.177V868.18ZM4729.88 914.233H4409.45L4332.85 837.638L4365.33 805.157L4428.59 868.422H4558.75L4430.53 739.951L4463.26 707.227L4591.48 835.458V705.284L4528.46 642.261L4560.69 610.02L4401.45 450.035H4081.5L4173.12 541.663V541.906H4363.15L4430.29 609.051L4332.13 707.224L4264.99 640.078V587.963H4173.12V678.136L4332.13 837.152L4267.41 901.872L4370.91 1005.38H4821.5L4729.88 914.233Z" fill="#231F20"/>
</g>
<g clip-path="url(#clip7_66_4)">
<circle cx="5712" cy="719.5" r="511.5" fill="url(#paint11_linear_66_4)"/>
<path d="M5402.98 597.723L5400.08 602.832L5404.34 606.872L5468.74 667.876V787.869L5404.34 848.873L5399.94 853.044L5403.1 858.222L5446.98 930.19L5449.85 934.898L5455.2 933.562L5543.71 911.465L5648.63 964.692L5667.19 1052.55L5668.45 1058.5H5674.53H5757.02H5762.74L5764.25 1052.98L5792.99 947.894L5895.85 911.377L5974.31 933.504L5979.89 935.077L5982.82 930.076L6024.97 858.108L6027.81 853.256L6023.95 849.167L5966.27 788.113V667.633L6023.95 606.578L6027.69 602.618L6025.08 597.835L5982.93 520.583L5979.89 515.011L5973.89 517.089L5885.71 547.646L5793.16 499.715L5764.25 394.022L5762.74 388.5H5757.02H5674.53H5668.48L5667.2 394.42L5648.51 481.134L5555.55 547.534L5455.57 517.003L5449.83 515.249L5446.86 520.471L5402.98 597.723Z" fill="#FF4F8B" stroke="#BC1356" stroke-width="15"/>
<path d="M5715.5 994.5C5863.24 994.5 5983 874.736 5983 727C5983 579.264 5863.24 459.5 5715.5 459.5C5567.76 459.5 5448 579.264 5448 727C5448 874.736 5567.76 994.5 5715.5 994.5Z" fill="#FF4F8B" stroke="#BC1356" stroke-width="15"/>
<path d="M5384.45 1008C5365.17 1008 5349.97 1002.47 5338.83 991.425C5328.12 980.8 5322.77 966.562 5322.77 948.712V784.237C5322.77 761.287 5313.77 749.812 5295.78 749.812H5276.5V705.187H5295.78C5313.77 705.187 5322.77 693.712 5322.77 670.762V506.287C5322.77 488.437 5328.12 474.2 5338.83 463.575C5349.97 452.525 5365.17 447 5384.45 447H5436.5V491.625H5396.66C5384.24 491.625 5378.03 499.062 5378.03 513.938V663.75C5378.03 679.475 5375.88 692.438 5371.6 702.637C5367.32 712.412 5358.75 720.7 5345.9 727.5C5358.75 734.3 5367.32 742.8 5371.6 753C5375.88 762.775 5378.03 775.525 5378.03 791.25V941.062C5378.03 955.937 5384.24 963.375 5396.66 963.375H5436.5V1008H5384.45Z" fill="#BC1356"/>
<path d="M5991.5 963.375H6031.09C6043.44 963.375 6049.61 955.937 6049.61 941.062V791.25C6049.61 775.525 6051.74 762.775 6055.99 753C6060.25 742.8 6068.77 734.3 6081.54 727.5C6068.77 720.7 6060.25 712.412 6055.99 702.637C6051.74 692.438 6049.61 679.475 6049.61 663.75V513.938C6049.61 499.062 6043.44 491.625 6031.09 491.625H5991.5V447H6043.22C6062.38 447 6077.28 452.525 6087.92 463.575C6098.99 474.2 6104.52 488.437 6104.52 506.287V670.762C6104.52 693.712 6113.46 705.187 6131.34 705.187H6150.5V749.812H6131.34C6113.46 749.812 6104.52 761.287 6104.52 784.237V948.712C6104.52 966.562 6098.99 980.8 6087.92 991.425C6077.28 1002.47 6062.38 1008 6043.22 1008H5991.5V963.375Z" fill="#BC1356"/>
<path d="M5439.5 827.562L5476.66 793L5537.5 905.462L5456.71 926L5439.5 827.562Z" fill="#FF4F8B"/>
<path d="M5421.5 612.182L5478.37 666L5533.79 548L5478.83 531.818L5421.5 612.182Z" fill="#FF4F8B"/>
<path d="M5672.64 409L5650.19 511.182H5790.5L5762.2 412.727L5672.64 409Z" fill="#FF4F8B"/>
<path d="M5967.83 528L5893.5 553.632L5962.01 663L6009.5 612.101L5967.83 528Z" fill="#FF4F8B"/>
<path d="M6004.5 840.253L5959.94 793L5891.5 903.167L5957.12 921L6004.5 840.253Z" fill="#FF4F8B"/>
<path d="M5763.9 1031L5781.5 966.167L5657.5 964L5671.63 1030.19L5763.9 1031Z" fill="#FF4F8B"/>
<path d="M5591.85 594.573C5597.76 594.573 5602.82 595.574 5607.02 597.575C5611.28 599.577 5614.49 602.389 5616.67 606.011C5618.89 609.633 5620 613.85 5620 618.664C5620 624.097 5618.25 628.696 5614.75 632.461C5611.26 636.226 5606.46 638.799 5600.36 640.181C5603.01 641.23 5605.2 642.921 5606.95 645.257C5608.42 647.211 5609.67 649.165 5610.71 651.119C5611.75 653.025 5612.91 655.384 5614.19 658.196C5615.51 661.103 5616.53 663.224 5617.24 664.558C5619.08 667.989 5621.21 669.705 5623.62 669.705H5625.6C5627.21 669.705 5628.35 670.086 5629.01 670.849C5629.72 671.564 5630.07 672.803 5630.07 674.566C5630.07 676.33 5629.72 677.592 5629.01 678.355C5628.35 679.07 5627.21 679.427 5625.6 679.427H5620.5C5617.66 679.427 5615.25 678.689 5613.27 677.211C5611.33 675.686 5609.44 673.113 5607.59 669.491C5606.55 667.394 5605.28 664.63 5603.76 661.198C5602.34 658.053 5601.19 655.622 5600.29 653.907C5599.44 652.143 5598.4 650.404 5597.17 648.688C5595.75 646.686 5594.05 645.185 5592.06 644.184C5590.08 643.136 5587.69 642.612 5584.9 642.612H5575.26V669.705H5584.47C5586.08 669.705 5587.22 670.086 5587.88 670.849C5588.59 671.564 5588.94 672.803 5588.94 674.566C5588.94 676.33 5588.59 677.592 5587.88 678.355C5587.22 679.07 5586.08 679.427 5584.47 679.427H5555.97C5554.36 679.427 5553.2 679.07 5552.49 678.355C5551.83 677.592 5551.5 676.33 5551.5 674.566C5551.5 672.803 5551.83 671.564 5552.49 670.849C5553.2 670.086 5554.36 669.705 5555.97 669.705H5564.62V604.295H5555.97C5554.36 604.295 5553.2 603.937 5552.49 603.223C5551.83 602.46 5551.5 601.197 5551.5 599.434C5551.5 597.67 5551.83 596.431 5552.49 595.716C5553.2 594.954 5554.36 594.573 5555.97 594.573H5591.85ZM5575.26 632.89H5589.65C5602.42 632.89 5608.8 628.148 5608.8 618.664C5608.8 614.089 5607.19 610.562 5603.98 608.084C5600.76 605.558 5596.22 604.295 5590.36 604.295H5575.26V632.89Z" fill="white"/>
<path d="M5705.59 648.688C5707.53 648.688 5708.9 649.045 5709.71 649.76C5710.51 650.475 5710.91 651.667 5710.91 653.335V674.566C5710.91 676.33 5710.56 677.592 5709.85 678.355C5709.19 679.07 5708.05 679.427 5706.44 679.427H5643.05C5641.44 679.427 5640.28 679.07 5639.57 678.355C5638.91 677.592 5638.58 676.33 5638.58 674.566C5638.58 672.803 5638.91 671.564 5639.57 670.849C5640.28 670.086 5641.44 669.705 5643.05 669.705H5650.28V604.295H5643.05C5641.44 604.295 5640.28 603.937 5639.57 603.223C5638.91 602.46 5638.58 601.197 5638.58 599.434C5638.58 597.67 5638.91 596.431 5639.57 595.716C5640.28 594.954 5641.44 594.573 5643.05 594.573H5705.03C5706.63 594.573 5707.77 594.954 5708.43 595.716C5709.14 596.431 5709.49 597.67 5709.49 599.434V617.591C5709.49 619.259 5709.09 620.451 5708.29 621.166C5707.48 621.881 5706.11 622.238 5704.18 622.238C5702.24 622.238 5700.87 621.881 5700.06 621.166C5699.26 620.451 5698.86 619.259 5698.86 617.591V604.295H5660.92V630.816H5679.21V624.311C5679.21 622.643 5679.57 621.452 5680.28 620.737C5681.03 620.022 5682.36 619.665 5684.25 619.665C5686.14 619.665 5687.44 620.022 5688.15 620.737C5688.91 621.452 5689.28 622.643 5689.28 624.311V647.044C5689.28 648.712 5688.91 649.903 5688.15 650.618C5687.44 651.333 5686.14 651.69 5684.25 651.69C5682.36 651.69 5681.03 651.333 5680.28 650.618C5679.57 649.903 5679.21 648.712 5679.21 647.044V640.539H5660.92V669.705H5700.28V653.335C5700.28 651.667 5700.68 650.475 5701.48 649.76C5702.28 649.045 5703.66 648.688 5705.59 648.688Z" fill="white"/>
<path d="M5786.86 593C5788.8 593 5790.17 593.357 5790.97 594.072C5791.78 594.787 5792.18 595.979 5792.18 597.647V614.089C5792.18 615.757 5791.78 616.948 5790.97 617.663C5790.17 618.378 5788.8 618.735 5786.86 618.735C5785.06 618.735 5783.83 618.116 5783.17 616.877C5780.9 612.54 5777.71 609.251 5773.6 607.011C5769.49 604.724 5764.81 603.58 5759.56 603.58C5754.36 603.58 5750.32 604.795 5747.43 607.226C5744.6 609.656 5743.18 612.921 5743.18 617.019C5743.18 618.973 5743.67 620.618 5744.67 621.952C5745.66 623.286 5747.08 624.43 5748.92 625.383C5750.58 626.241 5752.51 626.956 5754.74 627.528C5756.96 628.052 5759.94 628.672 5763.67 629.387C5767.74 630.197 5770.95 630.888 5773.32 631.46C5775.73 631.984 5778.09 632.723 5780.41 633.676C5785.13 635.63 5788.82 638.37 5791.47 641.897C5794.16 645.376 5795.51 650.094 5795.51 656.051C5795.51 661.008 5794.35 665.368 5792.04 669.133C5789.72 672.851 5786.29 675.758 5781.75 677.855C5777.26 679.952 5771.85 681 5765.52 681C5760.79 681 5756.39 680.142 5752.33 678.426C5748.31 676.663 5744.81 674.113 5741.83 670.777V676.353C5741.83 678.021 5741.43 679.213 5740.62 679.928C5739.82 680.643 5738.45 681 5736.51 681C5734.57 681 5733.2 680.643 5732.4 679.928C5731.6 679.213 5731.19 678.021 5731.19 676.353V654.907C5731.19 653.239 5731.6 652.048 5732.4 651.333C5733.2 650.618 5734.57 650.261 5736.51 650.261C5738.54 650.261 5739.92 651.262 5740.62 653.263C5742.56 658.791 5745.64 663.033 5749.84 665.988C5754.1 668.943 5759.32 670.42 5765.52 670.42C5771.57 670.42 5776.2 669.109 5779.41 666.488C5782.68 663.867 5784.31 660.388 5784.31 656.051C5784.31 653.049 5783.55 650.618 5782.04 648.76C5780.57 646.853 5778.42 645.281 5775.58 644.041C5773.79 643.231 5771.83 642.588 5769.7 642.111C5767.57 641.587 5764.66 640.944 5760.98 640.181C5757.1 639.419 5753.84 638.704 5751.19 638.037C5748.59 637.369 5746.18 636.535 5743.96 635.535C5740.18 633.819 5737.22 631.507 5735.09 628.6C5733.01 625.646 5731.97 621.785 5731.97 617.019C5731.97 612.111 5733.13 607.845 5735.45 604.223C5737.81 600.601 5741.07 597.837 5745.23 595.931C5749.44 593.977 5754.22 593 5759.56 593C5763.72 593 5767.74 593.81 5771.61 595.431C5775.49 597.051 5778.8 599.243 5781.54 602.007V597.647C5781.54 595.979 5781.94 594.787 5782.75 594.072C5783.55 593.357 5784.92 593 5786.86 593Z" fill="white"/>
<path d="M5881.03 594.573C5882.64 594.573 5883.77 594.954 5884.44 595.716C5885.15 596.431 5885.5 597.67 5885.5 599.434V626.384C5885.5 628.052 5885.1 629.244 5884.29 629.959C5883.49 630.673 5882.12 631.031 5880.18 631.031C5878.24 631.031 5876.87 630.673 5876.07 629.959C5875.26 629.244 5874.86 628.052 5874.86 626.384V604.295H5855.93V669.705H5872.66C5874.27 669.705 5875.41 670.086 5876.07 670.849C5876.78 671.564 5877.13 672.803 5877.13 674.566C5877.13 676.33 5876.78 677.592 5876.07 678.355C5875.41 679.07 5874.27 679.427 5872.66 679.427H5828.56C5826.95 679.427 5825.79 679.07 5825.08 678.355C5824.42 677.592 5824.09 676.33 5824.09 674.566C5824.09 672.803 5824.42 671.564 5825.08 670.849C5825.79 670.086 5826.95 669.705 5828.56 669.705H5845.29V604.295H5826.36V626.384C5826.36 628.052 5825.96 629.244 5825.15 629.959C5824.35 630.673 5822.98 631.031 5821.04 631.031C5819.1 631.031 5817.73 630.673 5816.93 629.959C5816.12 629.244 5815.72 628.052 5815.72 626.384V599.434C5815.72 597.67 5816.05 596.431 5816.71 595.716C5817.42 594.954 5818.58 594.573 5820.19 594.573H5881.03Z" fill="white"/>
<path d="M5582.17 804.451L5572.14 833.816H5585.23C5587.41 833.816 5588.5 834.904 5588.5 837.079V847.737C5588.5 849.912 5587.41 851 5585.23 851H5538.77C5536.59 851 5535.5 849.912 5535.5 847.737V837.079C5535.5 834.904 5536.59 833.816 5538.77 833.816H5551.64L5595.26 706.35C5596.13 704.32 5597.59 703.305 5599.62 703.305H5620.78C5622.81 703.305 5624.27 704.32 5625.14 706.35L5669.2 833.816H5684.03C5686.21 833.816 5687.3 834.904 5687.3 837.079V847.737C5687.3 849.912 5686.21 851 5684.03 851H5629.28C5627.1 851 5626.01 849.912 5626.01 847.737V837.079C5626.01 834.904 5627.1 833.816 5629.28 833.816H5642.81L5632.56 804.451H5582.17ZM5607.26 724.187L5586.54 788.137H5627.76L5607.26 724.187Z" fill="white"/>
<path d="M5696.09 847.737V837.079C5696.09 834.904 5697.18 833.816 5699.36 833.816H5710.7V720.707H5699.36C5697.18 720.707 5696.09 719.619 5696.09 717.444V706.568C5696.09 704.393 5697.18 703.305 5699.36 703.305C5717.97 702.435 5733.17 702 5744.94 702C5783.62 702 5802.96 716.139 5802.96 744.416C5802.96 759.062 5798.23 770.663 5788.78 779.219C5779.33 787.775 5766.46 792.053 5750.18 792.053C5743.78 792.053 5738.76 791.835 5735.13 791.4V833.816H5753.23C5755.41 833.816 5756.5 834.904 5756.5 837.079V847.737C5756.5 849.912 5755.41 851 5753.23 851H5699.36C5697.18 851 5696.09 849.912 5696.09 847.737ZM5735.13 720.054V774.651C5736.44 774.796 5739.78 774.869 5745.16 774.869C5766.97 774.869 5777.88 765.225 5777.88 745.939C5777.88 738.978 5776.06 733.54 5772.42 729.625C5768.93 725.564 5764.79 722.954 5759.99 721.794C5755.34 720.634 5749.67 720.054 5742.98 720.054H5735.13Z" fill="white"/>
<path d="M5858.67 720.924V833.816H5870.23C5872.41 833.816 5873.5 834.904 5873.5 837.079V847.737C5873.5 849.912 5872.41 851 5870.23 851H5822.68C5820.5 851 5819.41 849.912 5819.41 847.737V837.079C5819.41 834.904 5820.5 833.816 5822.68 833.816H5834.24V720.924H5822.68C5820.5 720.924 5819.41 719.836 5819.41 717.661V706.568C5819.41 704.393 5820.5 703.305 5822.68 703.305H5870.23C5872.41 703.305 5873.5 704.393 5873.5 706.568V717.661C5873.5 719.836 5872.41 720.924 5870.23 720.924H5858.67Z" fill="white"/>
</g>
</g>
<defs>
<linearGradient id="paint0_linear_66_4" x1="3207" y1="2663" x2="3207" y2="-4.6522e-05" gradientUnits="userSpaceOnUse">
<stop stop-color="#D9E6FA"/>
<stop offset="1" stop-color="white"/>
</linearGradient>
<linearGradient id="paint1_linear_66_4" x1="3134" y1="-3" x2="3134" y2="2663" gradientUnits="userSpaceOnUse">
<stop stop-color="#B9BCF6"/>
<stop offset="1" stop-color="#D9D9D9" stop-opacity="0"/>
<stop offset="1" stop-color="#D8E6FA"/>
</linearGradient>
<linearGradient id="paint2_linear_66_4" x1="907.5" y1="1003" x2="249" y2="452" gradientUnits="userSpaceOnUse">
<stop stop-color="#D9E6FA"/>
<stop offset="1" stop-color="white"/>
</linearGradient>
<linearGradient id="paint3_linear_66_4" x1="2167.5" y1="1003" x2="1509" y2="452" gradientUnits="userSpaceOnUse">
<stop stop-color="#D9E6FA"/>
<stop offset="1" stop-color="white"/>
</linearGradient>
<linearGradient id="paint4_linear_66_4" x1="3427.5" y1="1003" x2="2769" y2="452" gradientUnits="userSpaceOnUse">
<stop stop-color="#D9E6FA"/>
<stop offset="1" stop-color="white"/>
</linearGradient>
<linearGradient id="paint5_linear_66_4" x1="907.5" y1="2263" x2="249" y2="1712" gradientUnits="userSpaceOnUse">
<stop stop-color="#D9E6FA"/>
<stop offset="1" stop-color="white"/>
</linearGradient>
<linearGradient id="paint6_linear_66_4" x1="2167.5" y1="2263" x2="1509" y2="1712" gradientUnits="userSpaceOnUse">
<stop stop-color="#D9E6FA"/>
<stop offset="1" stop-color="white"/>
</linearGradient>
<linearGradient id="paint7_linear_66_4" x1="3425.5" y1="2263" x2="2767" y2="1712" gradientUnits="userSpaceOnUse">
<stop stop-color="#D9E6FA"/>
<stop offset="1" stop-color="white"/>
</linearGradient>
<linearGradient id="paint8_linear_66_4" x1="4687.5" y1="2263" x2="4029" y2="1712" gradientUnits="userSpaceOnUse">
<stop stop-color="#D9E6FA"/>
<stop offset="1" stop-color="white"/>
</linearGradient>
<linearGradient id="paint9_linear_66_4" x1="5943.5" y1="2263" x2="5285" y2="1712" gradientUnits="userSpaceOnUse">
<stop stop-color="#D9E6FA"/>
<stop offset="1" stop-color="white"/>
</linearGradient>
<linearGradient id="paint10_linear_66_4" x1="4687.5" y1="1003" x2="4029" y2="452" gradientUnits="userSpaceOnUse">
<stop stop-color="#D9E6FA"/>
<stop offset="1" stop-color="white"/>
</linearGradient>
<linearGradient id="paint11_linear_66_4" x1="5947.5" y1="1003" x2="5289" y2="452" gradientUnits="userSpaceOnUse">
<stop stop-color="#D9E6FA"/>
<stop offset="1" stop-color="white"/>
</linearGradient>
<clipPath id="clip0_66_4">
<rect width="6414" height="2663" rx="200" fill="white"/>
</clipPath>
<clipPath id="clip1_66_4">
<rect width="739" height="830" fill="white" transform="translate(283.5 314)"/>
</clipPath>
<clipPath id="clip2_66_4">
<rect width="1260" height="1260" fill="white" transform="translate(1282.5 99)"/>
</clipPath>
<clipPath id="clip3_66_4">
<rect width="845" height="858" fill="white" transform="translate(255.5 1560)"/>
</clipPath>
<clipPath id="clip4_66_4">
<rect width="1260" height="1260" fill="white" transform="translate(1282.5 1359)"/>
</clipPath>
<clipPath id="clip5_66_4">
<rect width="2247" height="534" fill="white" transform="translate(1456.5 1722)"/>
</clipPath>
<clipPath id="clip6_66_4">
<rect width="740" height="558" fill="white" transform="translate(4081.5 450)"/>
</clipPath>
<clipPath id="clip7_66_4">
<rect width="1260" height="1260" fill="white" transform="translate(5062.5 99)"/>
</clipPath>
</defs>
</svg>
